<?xml version="1.0" encoding="utf-8"?>
<!-- Generator: Adobe Illustrator 24.3.0, SVG Export Plug-In . SVG Version: 6.00 Build 0)  -->
<svg version="1.1" id="Capa_1" xmlns="http://www.w3.org/2000/svg" xmlns:xlink="http://www.w3.org/1999/xlink" x="0px" y="0px"
	 viewBox="0 0 36 36" style="enable-background:new 0 0 36 36;" xml:space="preserve">
<style type="text/css">
	.st0{fill:#EEEA80;}
</style>
<g>
	<path class="st0" d="M30.59,10.42c-0.17-0.09-0.31-0.22-0.47-0.25c-0.35-0.07-0.7-0.11-1.05-0.14c-0.13-0.01-0.21-0.03-0.27-0.15
		c-0.09-0.18-0.2-0.35-0.32-0.5c-0.83-1.01-1.93-1.49-3.22-1.5c-1.2-0.01-2.17,0.43-2.82,1.47c-0.16,0.25-0.29,0.52-0.4,0.78
		c-0.36,0.86-0.91,1.59-1.61,2.19c-0.99,0.84-2,1.67-2.98,2.51c-1.78,1.52-3.46,3.14-5.13,4.77c-0.4,0.4-0.8,0.81-1.23,1.17
		c-0.49,0.42-1.09,0.64-1.69,0.83c-1.98,0.64-3.83,1.56-5.6,2.64c-0.14,0.08-0.28,0.19-0.39,0.32C3.21,24.76,3.13,25,3.26,25.25
		c0.09,0.21,0.35,0.3,0.64,0.26c0.03-0.01,0.06-0.01,0.08-0.02c0.37-0.08,0.68-0.29,1-0.5c0.37-0.24,0.72-0.52,1.11-0.71
		c1.51-0.74,3.08-1.29,4.69-1.75c0.06-0.02,0.14,0,0.21,0.01c0.37,0.06,0.74,0.15,1.1,0.18c0.98,0.09,1.95,0.08,2.92,0.01
		c0.22-0.01,0.38,0.04,0.52,0.21c0.33,0.41,0.77,0.65,1.24,0.83c0.84,0.33,1.73,0.45,2.62,0.55c0.11,0.01,0.23,0.06,0.31,0.13
		c0.45,0.42,0.88,0.86,1.32,1.29c0.04,0.04,0.11,0.06,0.18,0.1c-0.01,0.02-0.04,0.04-0.05,0.06c-0.04,0.01-0.06,0.02-0.1,0.03
		c-0.33,0.07-0.66,0.14-0.99,0.21c-0.14,0.03-0.21,0.1-0.18,0.24c0.04,0.13,0.14,0.14,0.26,0.11c0.29-0.06,0.59-0.13,0.88-0.18
		c0.27-0.05,0.55-0.14,0.81-0.11c0.79,0.08,1.58,0.21,2.36,0.33c0.14,0.02,0.27,0.02,0.29-0.15c0.01-0.16-0.11-0.19-0.24-0.21
		c-0.54-0.08-1.08-0.16-1.63-0.23c-0.16-0.02-0.29-0.07-0.41-0.19c-0.45-0.44-0.91-0.86-1.37-1.29c-0.04-0.04-0.07-0.07-0.11-0.12
		c0.24-0.04,0.47-0.06,0.69-0.12c1.57-0.42,2.9-1.23,3.96-2.45c1.05-1.2,1.75-2.62,2.47-4.02c0.4-0.78,0.45-1.68,0.49-2.55
		c0.03-0.62,0.01-1.25,0.3-1.83c0.04-0.07,0.05-0.15,0.06-0.23c0.11-0.62,0.22-1.24,0.32-1.87c0.01-0.1,0.05-0.14,0.16-0.16
		c0.15-0.02,0.3-0.06,0.44-0.11C29.96,10.9,30.3,10.77,30.59,10.42z"/>
	<path class="st0" d="M30.59,10.42c-0.29,0.35-0.63,0.48-0.98,0.6c-0.14,0.05-0.29,0.08-0.44,0.11c-0.11,0.01-0.13,0.06-0.16,0.16
		c-0.11,0.62-0.21,1.24-0.32,1.87c-0.01,0.08-0.03,0.16-0.06,0.23c-0.28,0.58-0.27,1.21-0.3,1.83c-0.04,0.88-0.09,1.77-0.49,2.55
		c-0.71,1.4-1.43,2.82-2.47,4.02c-1.06,1.22-2.4,2.04-3.96,2.45c-0.22,0.06-0.45,0.08-0.69,0.12c0.04,0.04,0.08,0.08,0.11,0.12
		c0.46,0.43,0.92,0.85,1.37,1.29c0.12,0.12,0.25,0.17,0.41,0.19c0.54,0.08,1.08,0.15,1.63,0.23c0.13,0.02,0.25,0.05,0.24,0.21
		c-0.02,0.17-0.15,0.17-0.29,0.15c-0.78-0.11-1.57-0.24-2.36-0.33c-0.26-0.03-0.54,0.06-0.81,0.11c-0.3,0.06-0.59,0.12-0.88,0.18
		c-0.12,0.03-0.23,0.02-0.26-0.11c-0.04-0.13,0.04-0.21,0.18-0.24c0.33-0.06,0.66-0.14,0.99-0.21c0.04-0.01,0.06-0.02,0.1-0.03
		c0.01-0.02,0.04-0.04,0.05-0.06c-0.06-0.03-0.13-0.05-0.18-0.1c-0.44-0.43-0.87-0.87-1.32-1.29c-0.08-0.07-0.21-0.12-0.31-0.13
		c-0.89-0.11-1.78-0.22-2.62-0.55c-0.47-0.18-0.92-0.43-1.24-0.83c-0.13-0.17-0.3-0.23-0.52-0.21c-0.98,0.08-1.95,0.08-2.92-0.01
		c-0.37-0.04-0.74-0.12-1.1-0.18c-0.07-0.01-0.15-0.03-0.21-0.01c-1.61,0.47-3.18,1.02-4.69,1.75c-0.39,0.19-0.74,0.47-1.11,0.71
		c-0.31,0.21-0.62,0.42-1,0.5c-0.03,0.01-0.06,0.01-0.08,0.02c-0.3,0.04-0.54-0.06-0.64-0.26c-0.12-0.25-0.04-0.49,0.13-0.69
		c0.11-0.12,0.25-0.23,0.39-0.32c1.78-1.07,3.61-2,5.6-2.64c0.6-0.19,1.2-0.42,1.69-0.83c0.43-0.37,0.83-0.78,1.23-1.17
		c1.67-1.63,3.36-3.25,5.13-4.77c0.99-0.85,1.99-1.67,2.98-2.51c0.71-0.6,1.25-1.32,1.61-2.19c0.11-0.27,0.25-0.54,0.4-0.78
		c0.65-1.04,1.63-1.49,2.82-1.47c1.29,0.01,2.39,0.49,3.22,1.5c0.13,0.16,0.23,0.33,0.32,0.5c0.06,0.12,0.14,0.14,0.27,0.15
		c0.35,0.03,0.71,0.07,1.05,0.14C30.28,10.21,30.42,10.33,30.59,10.42z"/>
</g>
</svg>
