<?xml version="1.0" encoding="utf-8"?>
<!-- Generator: Adobe Illustrator 24.3.0, SVG Export Plug-In . SVG Version: 6.00 Build 0)  -->
<svg version="1.1" id="Capa_1" xmlns="http://www.w3.org/2000/svg" xmlns:xlink="http://www.w3.org/1999/xlink" x="0px" y="0px"
	 viewBox="0 0 300 300" style="enable-background:new 0 0 300 300;" xml:space="preserve">
<style type="text/css">
	.st0{fill:#EEEA7E;}
</style>
<g>
	<g>
		<path class="st0" d="M283.2,28c-1.7-0.9-3.2-2.2-4.7-2.6c-3.5-0.7-7.1-1.1-10.7-1.4c-1.3-0.1-2.1-0.3-2.7-1.5
			c-0.9-1.8-2-3.5-3.2-5.1c-8.5-10.3-19.6-15.1-32.7-15.2c-12.1-0.1-22,4.4-28.6,14.9c-1.6,2.5-2.9,5.2-4.1,8
			c-3.7,8.8-9.2,16.2-16.4,22.3c-10.1,8.5-20.3,16.9-30.3,25.5c-18,15.4-35.1,31.9-52.1,48.5c-4.1,4-8.1,8.2-12.5,11.8
			c-5,4.2-11.1,6.5-17.2,8.5C47.8,148.1,29,157.5,11,168.4c-1.4,0.9-2.8,1.9-3.9,3.2c-1.8,1.9-2.6,4.4-1.4,7c0.9,2.1,3.5,3,6.5,2.7
			c0.3-0.1,0.6-0.1,0.9-0.2c3.8-0.8,6.9-2.9,10.1-5c3.7-2.4,7.3-5.2,11.3-7.2c15.3-7.5,31.3-13.1,47.6-17.8c0.6-0.2,1.4,0,2.2,0.1
			c3.7,0.6,7.5,1.5,11.2,1.9c9.9,0.9,19.8,0.9,29.7,0.1c2.2-0.1,3.9,0.4,5.2,2.2c3.3,4.2,7.8,6.6,12.6,8.5
			c8.5,3.4,17.6,4.5,26.6,5.6c1.1,0.1,2.4,0.6,3.2,1.4c4.5,4.3,8.9,8.8,13.4,13.1c0.4,0.4,1.1,0.6,1.8,1c-0.1,0.2-0.4,0.4-0.5,0.6
			c-0.4,0.1-0.6,0.2-1,0.3c-3.4,0.7-6.7,1.4-10.1,2.2c-1.4,0.3-2.2,1-1.8,2.4c0.4,1.4,1.4,1.4,2.7,1.1c2.9-0.6,6-1.4,9-1.9
			c2.7-0.5,5.6-1.4,8.3-1.1c8,0.8,16,2.2,24,3.3c1.4,0.2,2.7,0.2,2.9-1.5c0.1-1.7-1.1-1.9-2.4-2.2c-5.5-0.8-11-1.6-16.5-2.3
			c-1.6-0.2-2.9-0.7-4.2-1.9c-4.6-4.5-9.3-8.7-13.9-13.1c-0.4-0.4-0.7-0.7-1.1-1.2c2.4-0.4,4.7-0.6,7-1.2
			c15.9-4.2,29.4-12.5,40.2-24.8c10.6-12.2,17.8-26.6,25.1-40.9c4.1-8,4.6-17,5-25.9c0.3-6.3,0.1-12.7,3-18.6
			c0.4-0.7,0.5-1.5,0.6-2.3c1.1-6.3,2.2-12.6,3.2-19c0.1-1,0.5-1.4,1.6-1.7c1.5-0.2,3-0.6,4.5-1.1C276.8,32.9,280.3,31.6,283.2,28z"
			/>
		<path class="st0" d="M283.2,28c-2.9,3.5-6.4,4.9-9.9,6.1c-1.4,0.5-2.9,0.9-4.5,1.1c-1.1,0.1-1.4,0.6-1.6,1.7
			c-1.1,6.3-2.2,12.6-3.2,19c-0.1,0.8-0.3,1.6-0.6,2.3c-2.9,5.9-2.7,12.3-3,18.6c-0.4,8.9-0.9,17.9-5,25.9
			c-7.3,14.2-14.5,28.6-25.1,40.9c-10.8,12.4-24.3,20.7-40.2,24.8c-2.2,0.6-4.5,0.8-7,1.2c0.4,0.4,0.8,0.9,1.1,1.2
			c4.7,4.4,9.3,8.6,13.9,13.1c1.2,1.2,2.6,1.7,4.2,1.9c5.5,0.8,11,1.5,16.5,2.3c1.3,0.2,2.6,0.5,2.4,2.2c-0.2,1.7-1.5,1.7-2.9,1.5
			c-8-1.1-15.9-2.4-24-3.3c-2.7-0.3-5.5,0.6-8.3,1.1c-3,0.6-6,1.2-9,1.9c-1.2,0.3-2.3,0.2-2.7-1.1s0.4-2.2,1.8-2.4
			c3.4-0.6,6.7-1.4,10.1-2.2c0.4-0.1,0.6-0.2,1-0.3c0.1-0.2,0.4-0.4,0.5-0.6c-0.6-0.3-1.3-0.5-1.8-1c-4.5-4.4-8.8-8.8-13.4-13.1
			c-0.8-0.7-2.1-1.2-3.2-1.4c-9-1.1-18.1-2.2-26.6-5.6c-4.8-1.9-9.3-4.4-12.6-8.5c-1.4-1.7-3-2.3-5.2-2.2
			c-9.9,0.8-19.8,0.9-29.7-0.1c-3.7-0.4-7.5-1.2-11.2-1.9c-0.7-0.1-1.5-0.3-2.2-0.1c-16.3,4.7-32.3,10.3-47.6,17.8
			c-3.9,1.9-7.5,4.7-11.3,7.2c-3.2,2.1-6.2,4.2-10.1,5c-0.3,0.1-0.6,0.1-0.9,0.2c-3,0.4-5.5-0.6-6.5-2.7c-1.2-2.6-0.4-5,1.4-7
			c1.1-1.2,2.5-2.3,3.9-3.2c18-10.9,36.7-20.3,56.9-26.8c6.1-1.9,12.2-4.2,17.2-8.5c4.4-3.7,8.4-7.9,12.5-11.8
			c16.9-16.6,34.1-33,52.1-48.5c10.1-8.6,20.2-16.9,30.3-25.5c7.2-6.1,12.7-13.4,16.4-22.3c1.1-2.7,2.5-5.5,4.1-8
			C207,6.7,217,2.1,229.1,2.3c13.1,0.1,24.3,5,32.7,15.2c1.3,1.6,2.4,3.3,3.2,5.1c0.6,1.2,1.4,1.4,2.7,1.5c3.6,0.3,7.2,0.7,10.7,1.4
			C280,25.9,281.5,27.1,283.2,28z"/>
	</g>
	<g>
		<path class="st0" d="M44.8,286.4v-49.5h16c6.1,0,10.1,0.2,11.9,0.7c2.9,0.7,5.2,2.4,7.1,4.8c1.9,2.4,2.9,5.7,2.9,9.6
			c0,3-0.6,5.6-1.7,7.7c-1.1,2.1-2.5,3.7-4.2,4.9c-1.7,1.2-3.4,1.9-5.2,2.4c-2.4,0.5-5.8,0.7-10.3,0.7h-6.5v18.7L44.8,286.4
			L44.8,286.4z M54.8,245.2v14.1h5.5c3.9,0,6.6-0.3,7.9-0.8c1.3-0.5,2.4-1.4,3.2-2.4c0.8-1.1,1.1-2.4,1.1-3.8c0-1.8-0.5-3.3-1.6-4.5
			c-1.1-1.1-2.4-1.9-4-2.2c-1.2-0.2-3.6-0.4-7.2-0.4H54.8z"/>
		<path class="st0" d="M90.2,246.2l4.7-10.1h10.6l-9.3,10.1H90.2z M90.9,286.4v-35.9h9.5v35.9H90.9z"/>
		<path class="st0" d="M107.9,267.9c0-3.2,0.8-6.2,2.3-9.2c1.6-2.9,3.7-5.2,6.6-6.7c2.9-1.6,6-2.4,9.5-2.4c5.5,0,9.9,1.8,13.4,5.3
			c3.4,3.5,5.2,8,5.2,13.4c0,5.5-1.7,9.9-5.2,13.5s-7.9,5.4-13.2,5.4c-3.3,0-6.4-0.7-9.4-2.2c-3-1.5-5.2-3.7-6.8-6.5
			C108.7,275.5,107.9,272.1,107.9,267.9z M117.7,268.4c0,3.6,0.9,6.3,2.5,8.2c1.7,1.9,3.8,2.8,6.2,2.8c2.4,0,4.5-0.9,6.2-2.8
			c1.7-1.9,2.5-4.7,2.5-8.3c0-3.5-0.9-6.2-2.5-8.1c-1.7-1.9-3.7-2.8-6.2-2.8s-4.6,0.9-6.2,2.8C118.5,262.2,117.7,264.9,117.7,268.4z
			"/>
		<path class="st0" d="M152.2,276.9h9.5v6.8c0,2.7-0.2,4.9-0.7,6.5s-1.4,3-2.7,4.2s-3,2.2-5,2.9l-1.9-3.9c1.9-0.6,3.3-1.5,4.1-2.6
			c0.8-1.1,1.2-2.6,1.3-4.5h-4.6V276.9z"/>
		<path class="st0" d="M190.6,250.5h8.8v5.2c1.1-1.8,2.7-3.3,4.7-4.4c1.9-1.1,4.2-1.7,6.5-1.7c4.2,0,7.7,1.7,10.6,4.9
			c2.9,3.3,4.4,7.8,4.4,13.6c0,6-1.4,10.6-4.4,14c-2.9,3.4-6.5,5-10.6,5c-2,0-3.8-0.4-5.4-1.2s-3.3-2.2-5.1-4V300h-9.5L190.6,250.5
			L190.6,250.5z M199.9,267.8c0,4,0.8,7,2.4,8.9c1.6,1.9,3.5,2.9,5.8,2.9c2.2,0,4-0.9,5.5-2.7c1.4-1.8,2.2-4.7,2.2-8.7
			c0-3.7-0.7-6.5-2.2-8.4c-1.5-1.8-3.4-2.7-5.6-2.7c-2.3,0-4.2,0.9-5.7,2.7C200.7,261.7,199.9,264.3,199.9,267.8z"/>
		<path class="st0" d="M232.4,246.2L237,236h10.6l-9.3,10.1H232.4z M233.1,286.4v-35.9h9.5v35.9H233.1z"/>
		<path class="st0" d="M250.1,267.9c0-3.2,0.8-6.2,2.3-9.2c1.6-2.9,3.7-5.2,6.6-6.7c2.9-1.6,6-2.4,9.5-2.4c5.5,0,9.9,1.8,13.4,5.3
			c3.4,3.5,5.2,8,5.2,13.4c0,5.5-1.7,9.9-5.2,13.5s-7.9,5.4-13.2,5.4c-3.3,0-6.4-0.7-9.4-2.2c-3-1.5-5.2-3.7-6.8-6.5
			C250.9,275.5,250.1,272.1,250.1,267.9z M259.9,268.4c0,3.6,0.9,6.3,2.5,8.2c1.7,1.9,3.8,2.8,6.2,2.8c2.4,0,4.5-0.9,6.2-2.8
			c1.7-1.9,2.5-4.7,2.5-8.3c0-3.5-0.9-6.2-2.5-8.1c-1.7-1.9-3.7-2.8-6.2-2.8c-2.5,0-4.6,0.9-6.2,2.8
			C260.7,262.2,259.9,264.9,259.9,268.4z"/>
	</g>
</g>
</svg>
