<?xml version="1.0" encoding="utf-8"?>
<!-- Generator: Adobe Illustrator 24.3.0, SVG Export Plug-In . SVG Version: 6.00 Build 0)  -->
<svg version="1.1" id="Capa_1" xmlns="http://www.w3.org/2000/svg" xmlns:xlink="http://www.w3.org/1999/xlink" x="0px" y="0px"
	 viewBox="0 0 100 100" style="enable-background:new 0 0 100 100;" xml:space="preserve">
<style type="text/css">
	.st0{fill:#010202;}
</style>
<g>
	<path class="st0" d="M93.4,17.2c-0.6-0.3-1.1-0.7-1.6-0.8c-1.2-0.2-2.4-0.4-3.6-0.5c-0.4,0-0.7-0.1-0.9-0.5
		c-0.3-0.6-0.7-1.2-1.1-1.7c-2.8-3.5-6.6-5.1-11-5.1c-4.1,0-7.4,1.5-9.6,5c-0.5,0.8-1,1.8-1.4,2.7c-1.2,3-3.1,5.4-5.5,7.5
		c-3.4,2.9-6.8,5.7-10.2,8.6C42.5,37.5,36.8,43,31.1,48.6c-1.4,1.3-2.7,2.7-4.2,4c-1.7,1.4-3.7,2.2-5.8,2.8c-6.8,2.2-13,5.3-19.1,9
		c-0.5,0.3-0.9,0.7-1.3,1.1c-0.6,0.7-0.9,1.5-0.5,2.3c0.3,0.7,1.2,1,2.2,0.9c0.1,0,0.2,0,0.3-0.1c1.3-0.3,2.3-1,3.4-1.7
		c1.2-0.8,2.5-1.8,3.8-2.4c5.1-2.5,10.5-4.4,16-6c0.2-0.1,0.5,0,0.7,0c1.3,0.2,2.5,0.5,3.8,0.6c3.3,0.3,6.6,0.3,10,0
		c0.8-0.1,1.3,0.1,1.8,0.7c1.1,1.4,2.6,2.2,4.2,2.9c2.9,1.1,5.9,1.5,8.9,1.9c0.4,0,0.8,0.2,1.1,0.5c1.5,1.4,3,2.9,4.5,4.4
		c0.1,0.1,0.4,0.2,0.6,0.3c-0.1,0.1-0.1,0.1-0.2,0.2c-0.1,0-0.2,0.1-0.3,0.1c-1.1,0.2-2.2,0.5-3.4,0.7c-0.5,0.1-0.7,0.4-0.6,0.8
		c0.1,0.5,0.5,0.5,0.9,0.4c1-0.2,2-0.4,3-0.6c0.9-0.2,1.9-0.5,2.8-0.4c2.7,0.3,5.4,0.7,8,1.1c0.5,0.1,0.9,0.1,1-0.5
		c0.1-0.6-0.4-0.7-0.8-0.7c-1.8-0.3-3.7-0.5-5.5-0.8c-0.5-0.1-1-0.2-1.4-0.6c-1.5-1.5-3.1-2.9-4.7-4.4c-0.1-0.1-0.2-0.3-0.4-0.4
		c0.8-0.1,1.6-0.2,2.3-0.4c5.4-1.4,9.9-4.2,13.5-8.3c3.6-4.1,6-8.9,8.4-13.7c1.4-2.7,1.5-5.7,1.7-8.7c0.1-2.1,0-4.3,1-6.3
		c0.1-0.2,0.2-0.5,0.2-0.8c0.4-2.1,0.7-4.2,1.1-6.4c0.1-0.3,0.2-0.5,0.5-0.6c0.5-0.1,1-0.2,1.5-0.4C91.3,18.9,92.4,18.4,93.4,17.2z"
		/>
	<path class="st0" d="M93.4,17.2c-1,1.2-2.1,1.6-3.3,2c-0.5,0.2-1,0.3-1.5,0.4c-0.4,0.1-0.5,0.2-0.5,0.6c-0.4,2.1-0.7,4.2-1.1,6.4
		c0,0.3-0.1,0.5-0.2,0.8c-1,2-0.9,4.1-1,6.3c-0.1,3-0.3,6-1.7,8.7c-2.4,4.8-4.9,9.6-8.4,13.7c-3.6,4.2-8.2,6.9-13.5,8.3
		c-0.7,0.2-1.5,0.3-2.3,0.4c0.1,0.1,0.3,0.3,0.4,0.4c1.6,1.5,3.1,2.9,4.7,4.4c0.4,0.4,0.9,0.6,1.4,0.6c1.8,0.3,3.7,0.5,5.5,0.8
		c0.4,0.1,0.9,0.2,0.8,0.7c-0.1,0.6-0.5,0.6-1,0.5c-2.7-0.4-5.4-0.8-8-1.1c-0.9-0.1-1.8,0.2-2.8,0.4c-1,0.2-2,0.4-3,0.6
		c-0.4,0.1-0.8,0.1-0.9-0.4C56.8,71.3,57,71,57.5,71c1.1-0.2,2.3-0.5,3.4-0.7c0.1,0,0.2-0.1,0.3-0.1c0.1-0.1,0.1-0.1,0.2-0.2
		c-0.2-0.1-0.4-0.2-0.6-0.3c-1.5-1.5-3-3-4.5-4.4c-0.3-0.3-0.7-0.4-1.1-0.5c-3-0.4-6.1-0.7-8.9-1.9c-1.6-0.6-3.1-1.5-4.2-2.9
		c-0.5-0.6-1-0.8-1.8-0.7c-3.3,0.3-6.6,0.3-10,0c-1.3-0.1-2.5-0.4-3.8-0.6c-0.2,0-0.5-0.1-0.7,0c-5.5,1.6-10.9,3.5-16,6
		c-1.3,0.7-2.5,1.6-3.8,2.4C5,67.7,4,68.4,2.7,68.7c-0.1,0-0.2,0.1-0.3,0.1c-1,0.1-1.9-0.2-2.2-0.9C-0.2,67,0,66.2,0.7,65.5
		C1,65.1,1.5,64.7,2,64.4c6-3.7,12.3-6.8,19.1-9c2-0.7,4.1-1.4,5.8-2.8c1.5-1.3,2.8-2.6,4.2-4c5.7-5.6,11.4-11.1,17.5-16.3
		c3.4-2.9,6.8-5.7,10.2-8.6c2.4-2,4.3-4.5,5.5-7.5c0.4-0.9,0.8-1.8,1.4-2.7c2.2-3.5,5.6-5.1,9.6-5c4.4,0,8.2,1.7,11,5.1
		c0.4,0.5,0.8,1.1,1.1,1.7c0.2,0.4,0.5,0.5,0.9,0.5c1.2,0.1,2.4,0.2,3.6,0.5C92.3,16.5,92.8,16.9,93.4,17.2z"/>
</g>
<g>
	<path d="M32.2,96.5V83.8h4.1c1.6,0,2.6,0.1,3.1,0.2c0.7,0.2,1.3,0.6,1.8,1.2s0.7,1.5,0.7,2.5c0,0.8-0.1,1.4-0.4,2s-0.6,1-1.1,1.3
		c-0.4,0.3-0.9,0.5-1.3,0.6c-0.6,0.1-1.5,0.2-2.7,0.2h-1.7v4.8L32.2,96.5L32.2,96.5z M34.7,85.9v3.6h1.4c1,0,1.7-0.1,2-0.2
		c0.3-0.1,0.6-0.4,0.8-0.6c0.2-0.3,0.3-0.6,0.3-1c0-0.5-0.1-0.8-0.4-1.1s-0.6-0.5-1-0.6c-0.3-0.1-0.9-0.1-1.8-0.1L34.7,85.9
		L34.7,85.9z"/>
	<path d="M43.8,86.2l1.2-2.6h2.7l-2.4,2.6H43.8z M44,96.5v-9.2h2.4v9.2H44z"/>
	<path d="M48.4,91.8c0-0.8,0.2-1.6,0.6-2.4c0.4-0.8,1-1.3,1.7-1.7c0.7-0.4,1.6-0.6,2.5-0.6c1.4,0,2.5,0.5,3.4,1.4
		c0.9,0.9,1.3,2,1.3,3.4c0,1.4-0.4,2.5-1.3,3.5c-0.9,0.9-2,1.4-3.4,1.4c-0.8,0-1.6-0.2-2.4-0.6s-1.3-0.9-1.8-1.7
		C48.6,93.7,48.4,92.8,48.4,91.8z M50.9,91.9c0,0.9,0.2,1.6,0.6,2.1c0.4,0.5,1,0.7,1.6,0.7s1.2-0.2,1.6-0.7c0.4-0.5,0.6-1.2,0.6-2.1
		c0-0.9-0.2-1.6-0.6-2.1s-1-0.7-1.6-0.7c-0.6,0-1.2,0.2-1.6,0.7C51.1,90.3,50.9,91,50.9,91.9z"/>
	<path d="M59.7,94.1h2.4v1.8c0,0.7-0.1,1.3-0.2,1.7c-0.1,0.4-0.4,0.8-0.7,1.1c-0.3,0.3-0.8,0.6-1.3,0.8l-0.5-1
		c0.5-0.2,0.8-0.4,1.1-0.7c0.2-0.3,0.3-0.7,0.3-1.2h-1.2C59.7,96.5,59.7,94.1,59.7,94.1z"/>
	<path d="M69.6,87.3h2.3v1.3c0.3-0.5,0.7-0.8,1.2-1.1c0.5-0.3,1.1-0.4,1.7-0.4c1.1,0,2,0.4,2.7,1.3c0.7,0.8,1.1,2,1.1,3.5
		c0,1.5-0.4,2.7-1.1,3.6c-0.8,0.9-1.7,1.3-2.7,1.3c-0.5,0-1-0.1-1.4-0.3c-0.4-0.2-0.8-0.6-1.3-1v4.7h-2.4L69.6,87.3L69.6,87.3z
		 M72,91.8c0,1,0.2,1.8,0.6,2.3c0.4,0.5,0.9,0.7,1.5,0.7c0.6,0,1-0.2,1.4-0.7c0.4-0.5,0.6-1.2,0.6-2.2c0-1-0.2-1.7-0.6-2.2
		c-0.4-0.5-0.9-0.7-1.4-0.7c-0.6,0-1.1,0.2-1.5,0.7C72.2,90.2,72,90.8,72,91.8z"/>
	<path d="M80.3,86.2l1.2-2.6h2.7l-2.4,2.6H80.3z M80.5,96.5v-9.2H83v9.2H80.5z"/>
	<path d="M84.9,91.8c0-0.8,0.2-1.6,0.6-2.4c0.4-0.8,1-1.3,1.7-1.7c0.7-0.4,1.6-0.6,2.5-0.6c1.4,0,2.5,0.5,3.4,1.4
		c0.9,0.9,1.3,2,1.3,3.4c0,1.4-0.4,2.5-1.3,3.5c-0.9,0.9-2,1.4-3.4,1.4c-0.8,0-1.6-0.2-2.4-0.6c-0.8-0.4-1.3-0.9-1.8-1.7
		C85.1,93.7,84.9,92.8,84.9,91.8z M87.4,91.9c0,0.9,0.2,1.6,0.6,2.1c0.4,0.5,1,0.7,1.6,0.7s1.2-0.2,1.6-0.7c0.4-0.5,0.6-1.2,0.6-2.1
		c0-0.9-0.2-1.6-0.6-2.1s-1-0.7-1.6-0.7s-1.2,0.2-1.6,0.7C87.6,90.3,87.4,91,87.4,91.9z"/>
</g>
</svg>
