<?xml version="1.0" encoding="utf-8"?>
<!-- Generator: Adobe Illustrator 24.3.0, SVG Export Plug-In . SVG Version: 6.00 Build 0)  -->
<svg version="1.1" id="Capa_1" xmlns="http://www.w3.org/2000/svg" xmlns:xlink="http://www.w3.org/1999/xlink" x="0px" y="0px"
	 viewBox="0 0 126.65 84.96" style="enable-background:new 0 0 126.65 84.96;" xml:space="preserve">
<style type="text/css">
	.st0{fill:#EEEA7E;}
</style>
<g>
	<g>
		<path class="st0" d="M107.09,34.63c0.17,0.46,0.36,0.88,0.7,1.23c0.24,0.25,0.52,0.41,0.87,0.39c0.16-0.01,0.21,0.06,0.27,0.19
			c0.19,0.45,0.46,0.85,0.81,1.2c0.38,0.38,0.82,0.61,1.39,0.04c0.08,0.12,0.15,0.25,0.22,0.37c0.36,0.56,0.83,1.02,1.39,1.37
			c0.54,0.34,1.09,0.41,1.65,0.04c0.09-0.06,0.15-0.05,0.23,0c0.27,0.15,0.54,0.29,0.81,0.43c0.37,0.19,0.77,0.25,1.18,0.3
			c0.07,0.01,0.14,0,0.21-0.01c0.11-0.02,0.14-0.09,0.08-0.19c-0.02-0.03-0.04-0.05-0.06-0.07c-0.42-0.33-0.72-0.76-0.97-1.22
			c-0.93-1.68-1.87-3.35-2.75-5.06c-0.57-1.11-1.02-2.28-1.55-3.42c-0.27-0.58-0.59-1.15-0.87-1.73c-0.21-0.45-0.63-0.65-1.03-0.86
			c-0.57-0.3-1.16-0.57-1.66-0.98c-0.48-0.39-0.96-0.78-1.35-1.28c0.33-0.09,0.66-0.16,0.98-0.27c1.16-0.4,2.23-0.97,3.13-1.81
			c0.2-0.19,0.38-0.4,0.47-0.67c0.02-0.05,0.1-0.1,0.16-0.11c0.49-0.07,0.98-0.12,1.47-0.19c0.1-0.01,0.19-0.04,0.28-0.07
			c0.04-0.02,0.07-0.07,0.1-0.11c-0.04-0.03-0.08-0.08-0.12-0.08c-0.33-0.04-0.66-0.06-1-0.09c-0.27-0.03-0.54-0.06-0.82-0.1
			c-0.03,0-0.07-0.04-0.09-0.06c-0.54-0.8-1.29-1.29-2.24-1.49c-0.6-0.13-1.2-0.12-1.8-0.04c-0.52,0.07-1.04,0.14-1.57,0.19
			c-0.21,0.02-0.43,0.01-0.65-0.01c-0.49-0.05-0.69-0.43-0.86-0.82c-0.16-0.34-0.16-0.71-0.18-1.07c-0.02-0.46-0.05-0.91-0.12-1.36
			c-0.05-0.34-0.24-0.63-0.5-0.87c-0.55-0.52-1.1-1.04-1.64-1.56c-0.89-0.84-1.61-1.82-2.29-2.83c-0.31-0.46-0.63-0.9-0.92-1.36
			c-0.4-0.62-0.96-1.05-1.61-1.38c-0.8-0.4-1.6-0.79-2.37-1.23c-0.37-0.21-0.69-0.51-1.03-0.77c-0.05-0.04-0.09-0.08-0.13-0.12
			c-0.1-0.07-0.21-0.03-0.19,0.1c0.02,0.18,0.06,0.37,0.15,0.51c0.3,0.47,0.63,0.92,0.96,1.39c-0.15,0.19-0.16,0.44-0.05,0.69
			c0.13,0.28,0.3,0.54,0.47,0.82c-0.25,0.17-0.32,0.46-0.26,0.78c0.07,0.36,0.25,0.67,0.53,0.9c0.25,0.21,0.51,0.39,0.77,0.58
			c0,0,0,0.01-0.01,0.01c-0.37,0.04-0.47,0.38-0.34,0.7c0.15,0.35,0.41,0.62,0.7,0.85c0.03,0.03,0.07,0.05,0.12,0.08
			c-0.19,0.06-0.34,0.14-0.4,0.33c-0.07,0.21-0.06,0.43,0.02,0.63c0.14,0.34,0.41,0.56,0.69,0.78c0.08,0.06,0.16,0.11,0.24,0.17
			c-0.48,0.29-0.49,0.92-0.12,1.29c0.16,0.16,0.34,0.31,0.5,0.45c-0.12,0.15-0.28,0.28-0.36,0.44c-0.24,0.47-0.12,1.02,0.3,1.37
			c0.14,0.12,0.3,0.23,0.46,0.32c0.16,0.09,0.35,0.14,0.53,0.21c-0.35,0.16-0.59,0.42-0.69,0.79c-0.1,0.37-0.02,0.71,0.25,1.02
			c-0.04,0.01-0.06,0.02-0.07,0.02c-0.94-0.01-1.88-0.01-2.81-0.04c-0.95-0.03-1.89-0.13-2.81-0.39c-0.86-0.24-1.71-0.53-2.49-0.99
			c-0.75-0.43-1.52-0.82-2.29-1.22c-0.28-0.15-0.56-0.29-0.84-0.43c-0.01,0-0.02,0-0.07,0.01c0.24,0.27,0.45,0.53,0.7,0.76
			c0.27,0.26,0.55,0.5,0.85,0.72c0.64,0.49,1.28,0.98,1.95,1.42c0.51,0.35,1.07,0.62,1.61,0.94c0.31,0.19,0.62,0.39,0.92,0.59
			c0.26,0.17,0.31,0.56,0.15,0.82c-0.23,0.37-0.56,0.62-0.95,0.8c-0.85,0.4-1.73,0.7-2.64,0.91c-0.89,0.2-1.78,0.38-2.68,0.55
			c-0.28,0.05-0.57,0.05-0.85,0.08c-0.06,0.01-0.12,0.03-0.21,0.06c0.07,0.03,0.1,0.06,0.14,0.06c0.4,0.08,0.8,0.19,1.2,0.23
			c0.65,0.06,1.3,0.1,1.95,0.1c1.29,0,2.58-0.07,3.86-0.31c0.78-0.14,1.55-0.28,2.34-0.38c0.49-0.06,0.99-0.03,1.48-0.08
			c0.51-0.05,0.96,0.13,1.43,0.26c0.58,0.16,1.17,0.26,1.76,0.26c0.61,0.01,1.23,0,1.84-0.01c0.06,0,0.12-0.01,0.19-0.02
			c-0.02,0.27-0.05,0.55,0.15,0.78c0.18,0.22,0.41,0.37,0.71,0.43c-0.25,0.39-0.32,0.82-0.03,1.19c0.3,0.38,0.74,0.35,1.19,0.25
			c-0.06,0.13-0.11,0.25-0.16,0.37c-0.13,0.35-0.25,0.71-0.18,1.1c0.05,0.28,0.23,0.49,0.51,0.49c0.22,0,0.44-0.06,0.66-0.1
			c0.06-0.01,0.12-0.05,0.16-0.06c-0.02,0.31-0.07,0.61-0.06,0.91c0.01,0.21,0.07,0.44,0.15,0.63c0.13,0.3,0.39,0.42,0.71,0.38
			c0.21-0.03,0.41-0.06,0.6-0.09c0.08,0.28,0.15,0.57,0.24,0.85c0.03,0.09,0.08,0.18,0.13,0.26c0.24,0.38,0.53,0.47,0.94,0.29
			C107.01,34.67,107.04,34.65,107.09,34.63z"/>
	</g>
	<g>
		<path class="st0" d="M18.19,34v1.76H16v7.12h-2.11v-7.12h-2.21V34H18.19z"/>
		<path class="st0" d="M26.08,34v5.53c0,0.89-0.1,1.56-0.31,1.99c-0.2,0.44-0.58,0.79-1.13,1.07c-0.55,0.28-1.25,0.42-2.1,0.42
			s-1.53-0.13-2.04-0.38c-0.5-0.25-0.88-0.61-1.13-1.07c-0.25-0.46-0.38-1.14-0.38-2.03V34h2.26v5.53c0,0.48,0.04,0.83,0.12,1.05
			c0.08,0.23,0.24,0.4,0.48,0.54c0.24,0.13,0.54,0.2,0.89,0.2c0.39,0,0.71-0.07,0.95-0.2c0.24-0.13,0.41-0.3,0.49-0.52
			c0.08-0.21,0.12-0.57,0.12-1.08V34H26.08z"/>
		<path class="st0" d="M29.82,39.36v3.52h-2.09V34h3.9c0.72,0,1.3,0.08,1.73,0.25c0.44,0.17,0.8,0.47,1.08,0.92
			c0.29,0.45,0.43,0.94,0.43,1.49c0,1.07-0.51,1.83-1.54,2.29l1.64,3.92h-2.3l-1.36-3.52H29.82z M29.82,35.58v2.26h1.27
			c0.42,0,0.72-0.03,0.91-0.09c0.19-0.06,0.36-0.19,0.5-0.39c0.15-0.2,0.22-0.43,0.22-0.69c0-0.25-0.07-0.47-0.22-0.66
			c-0.15-0.2-0.31-0.32-0.48-0.36c-0.17-0.05-0.5-0.07-0.98-0.07H29.82z"/>
		<path class="st0" d="M38.56,34v8.87h-2.07V34H38.56z"/>
		<path class="st0" d="M46.47,35.95l-1.77,0.59c-0.24-0.7-0.74-1.05-1.51-1.05c-0.82,0-1.23,0.27-1.23,0.8
			c0,0.21,0.08,0.39,0.23,0.54c0.15,0.15,0.5,0.28,1.04,0.38c0.9,0.18,1.57,0.37,1.99,0.55c0.42,0.19,0.77,0.49,1.06,0.9
			s0.43,0.88,0.43,1.39c0,0.8-0.31,1.49-0.93,2.08c-0.62,0.59-1.53,0.88-2.74,0.88c-0.91,0-1.68-0.21-2.32-0.62
			c-0.64-0.41-1.06-1.03-1.26-1.84l1.92-0.44c0.22,0.83,0.82,1.24,1.8,1.24c0.48,0,0.83-0.09,1.06-0.28
			c0.23-0.18,0.35-0.4,0.35-0.66c0-0.26-0.11-0.46-0.32-0.6c-0.21-0.14-0.62-0.28-1.23-0.4c-1.13-0.23-1.93-0.55-2.42-0.96
			c-0.48-0.41-0.72-1-0.72-1.78c0-0.79,0.29-1.45,0.86-2c0.57-0.54,1.35-0.81,2.33-0.81C44.85,33.86,45.97,34.56,46.47,35.95z"/>
		<path class="st0" d="M52,42.87l-2.19-7.24v7.24h-1.74V34h3.24l1.56,5.31L54.5,34h3.25v8.87h-2.09v-7.24l-2.23,7.24H52z"/>
		<path class="st0" d="M62.85,43.01c-1.2,0-2.12-0.45-2.77-1.35c-0.65-0.9-0.98-1.98-0.98-3.26c0-1.3,0.33-2.38,0.99-3.24
			c0.66-0.87,1.61-1.3,2.83-1.3c1.24,0,2.17,0.46,2.8,1.39c0.63,0.93,0.94,1.98,0.94,3.18c0,1.29-0.32,2.37-0.97,3.26
			C65.04,42.57,64.09,43.01,62.85,43.01z M62.9,35.56c-1.09,0-1.63,0.96-1.63,2.87c0,1.92,0.55,2.88,1.63,2.88
			c1.06,0,1.58-0.96,1.58-2.87C64.49,36.52,63.96,35.56,62.9,35.56z"/>
		<path class="st0" d="M15.9,58.99c-1.2,0-2.12-0.45-2.77-1.35c-0.65-0.9-0.98-1.98-0.98-3.26c0-1.3,0.33-2.38,0.99-3.24
			c0.66-0.87,1.61-1.3,2.83-1.3c1.24,0,2.17,0.46,2.8,1.39c0.63,0.93,0.95,1.98,0.95,3.18c0,1.29-0.32,2.37-0.97,3.26
			C18.1,58.55,17.15,58.99,15.9,58.99z M15.96,51.54c-1.09,0-1.63,0.96-1.63,2.87c0,1.92,0.55,2.88,1.63,2.88
			c1.06,0,1.58-0.96,1.58-2.87C17.54,52.5,17.02,51.54,15.96,51.54z"/>
		<path class="st0" d="M23.17,55.33v3.52h-2.09v-8.87h3.9c0.72,0,1.3,0.08,1.73,0.25c0.44,0.17,0.8,0.47,1.08,0.92
			c0.29,0.45,0.43,0.94,0.43,1.49c0,1.07-0.51,1.83-1.54,2.29l1.64,3.92h-2.3l-1.36-3.52H23.17z M23.17,51.56v2.26h1.27
			c0.42,0,0.72-0.03,0.91-0.09c0.19-0.06,0.36-0.19,0.5-0.39c0.15-0.2,0.22-0.43,0.22-0.69c0-0.25-0.07-0.47-0.22-0.66
			c-0.15-0.2-0.31-0.32-0.48-0.36c-0.17-0.05-0.5-0.07-0.98-0.07H23.17z"/>
		<path class="st0" d="M36.66,49.98v8.87h-1.77l-3.47-5.99c0,0.15,0.01,0.25,0.01,0.3c0.02,0.15,0.03,0.28,0.03,0.38v5.31h-1.62
			v-8.87h2.24l3.02,5.23c-0.03-0.26-0.04-0.46-0.04-0.59v-4.64H36.66z"/>
		<path class="st0" d="M40.51,49.98v8.87h-2.07v-8.87H40.51z"/>
		<path class="st0" d="M47.92,49.98v1.76h-2.2v7.12h-2.11v-7.12H41.4v-1.76H47.92z"/>
		<path class="st0" d="M52.14,58.99c-1.2,0-2.12-0.45-2.77-1.35c-0.65-0.9-0.98-1.98-0.98-3.26c0-1.3,0.33-2.38,0.99-3.24
			c0.66-0.87,1.61-1.3,2.83-1.3c1.24,0,2.17,0.46,2.8,1.39c0.63,0.93,0.95,1.98,0.95,3.18c0,1.29-0.32,2.37-0.97,3.26
			C54.33,58.55,53.39,58.99,52.14,58.99z M52.2,51.54c-1.09,0-1.63,0.96-1.63,2.87c0,1.92,0.55,2.88,1.63,2.88
			c1.06,0,1.58-0.96,1.58-2.87C53.78,52.5,53.25,51.54,52.2,51.54z"/>
		<path class="st0" d="M59.42,57.1h3.53v1.76h-5.64v-8.87h2.11V57.1z"/>
		<path class="st0" d="M67.35,58.99c-1.2,0-2.12-0.45-2.77-1.35c-0.65-0.9-0.98-1.98-0.98-3.26c0-1.3,0.33-2.38,0.99-3.24
			c0.66-0.87,1.61-1.3,2.83-1.3c1.24,0,2.17,0.46,2.8,1.39s0.95,1.98,0.95,3.18c0,1.29-0.32,2.37-0.97,3.26
			C69.55,58.55,68.6,58.99,67.35,58.99z M67.41,51.54c-1.09,0-1.63,0.96-1.63,2.87c0,1.92,0.54,2.88,1.63,2.88
			c1.06,0,1.58-0.96,1.58-2.87C68.99,52.5,68.46,51.54,67.41,51.54z M69.04,46.92l0.49,1.09l-2.86,1.22l-0.33-0.73L69.04,46.92z"/>
		<path class="st0" d="M79.44,54.11v4.75h-0.95c-0.07-0.33-0.17-0.67-0.3-1.02c-0.63,0.77-1.44,1.16-2.42,1.16
			c-1.16,0-2.06-0.41-2.7-1.24c-0.64-0.83-0.97-1.9-0.97-3.21c0-1.41,0.34-2.55,1.03-3.41c0.69-0.86,1.62-1.29,2.8-1.29
			c0.99,0,1.79,0.28,2.39,0.83c0.61,0.55,0.98,1.29,1.11,2.22l-1.98,0.26c-0.16-1.07-0.67-1.61-1.53-1.61
			c-0.56,0-0.99,0.25-1.28,0.76c-0.29,0.51-0.43,1.24-0.43,2.18c0,0.91,0.16,1.61,0.47,2.09c0.31,0.48,0.76,0.72,1.33,0.72
			c0.37,0,0.71-0.12,1-0.36c0.29-0.24,0.44-0.63,0.44-1.16h-1.67v-1.66H79.44z"/>
		<path class="st0" d="M83.15,49.98v8.87h-2.07v-8.87H83.15z"/>
		<path class="st0" d="M92.09,53.28l-2.18,0.14c-0.03-1.25-0.52-1.88-1.47-1.88c-1.09,0-1.63,0.96-1.63,2.89
			c0,1.11,0.15,1.87,0.44,2.27c0.3,0.4,0.71,0.59,1.24,0.59c0.86,0,1.39-0.56,1.58-1.68l2.02,0.12c-0.13,1.06-0.53,1.87-1.19,2.42
			c-0.66,0.55-1.47,0.83-2.43,0.83c-1.17,0-2.13-0.41-2.86-1.22c-0.73-0.81-1.1-1.93-1.1-3.36c0-1.34,0.36-2.44,1.07-3.29
			c0.71-0.85,1.68-1.28,2.91-1.28C90.62,49.84,91.82,50.99,92.09,53.28z"/>
		<path class="st0" d="M96.62,58.99c-1.2,0-2.12-0.45-2.77-1.35c-0.65-0.9-0.98-1.98-0.98-3.26c0-1.3,0.33-2.38,0.99-3.24
			c0.66-0.87,1.61-1.3,2.83-1.3c1.24,0,2.17,0.46,2.8,1.39s0.95,1.98,0.95,3.18c0,1.29-0.32,2.37-0.97,3.26
			C98.81,58.55,97.87,58.99,96.62,58.99z M96.68,51.54c-1.09,0-1.63,0.96-1.63,2.87c0,1.92,0.54,2.88,1.63,2.88
			c1.06,0,1.58-0.96,1.58-2.87C98.26,52.5,97.73,51.54,96.68,51.54z"/>
		<path class="st0" d="M12.57,65.95h2.71c1.1,0,1.93,0.15,2.47,0.46c0.54,0.31,1.03,0.79,1.45,1.45c0.43,0.66,0.64,1.5,0.64,2.51
			c0,1.27-0.37,2.33-1.12,3.18c-0.75,0.85-1.78,1.28-3.1,1.28h-3.05V65.95z M14.61,67.59v5.57h0.86c0.76,0,1.32-0.28,1.69-0.85
			c0.37-0.57,0.55-1.23,0.55-1.99c0-0.54-0.1-1.03-0.31-1.49c-0.21-0.46-0.47-0.78-0.78-0.96c-0.31-0.18-0.69-0.28-1.12-0.28H14.61z
			"/>
		<path class="st0" d="M27.54,67.64h-4.23v1.82h3.32v1.67h-3.32v1.94h4.23v1.76H21.2v-8.87h6.34V67.64z"/>
		<path class="st0" d="M39.28,69.26l-2.18,0.14c-0.03-1.25-0.52-1.88-1.47-1.88c-1.09,0-1.63,0.96-1.63,2.89
			c0,1.11,0.15,1.87,0.44,2.27c0.3,0.4,0.71,0.59,1.24,0.59c0.86,0,1.39-0.56,1.58-1.68l2.02,0.12c-0.13,1.06-0.53,1.87-1.19,2.42
			c-0.66,0.55-1.47,0.83-2.43,0.83c-1.17,0-2.13-0.41-2.86-1.22c-0.73-0.81-1.1-1.93-1.1-3.36c0-1.34,0.36-2.44,1.07-3.29
			c0.71-0.85,1.68-1.28,2.91-1.28C37.81,65.82,39.01,66.96,39.28,69.26z"/>
		<path class="st0" d="M44.74,65.95l2.78,8.87h-2.23L44.74,73h-2.87l-0.56,1.83h-1.82l2.84-8.87H44.74z M42.37,71.36h1.88
			l-0.93-3.11L42.37,71.36z"/>
		<path class="st0" d="M55.3,65.95v8.87h-1.77l-3.47-5.99c0,0.15,0.01,0.25,0.01,0.3c0.02,0.15,0.03,0.28,0.03,0.38v5.31h-1.62
			v-8.87h2.24l3.02,5.23c-0.03-0.26-0.04-0.46-0.04-0.59v-4.64H55.3z"/>
		<path class="st0" d="M62.71,65.95v1.76h-2.2v7.12H58.4v-7.12h-2.21v-1.76H62.71z"/>
		<path class="st0" d="M67.33,65.95l2.78,8.87h-2.23L67.33,73h-2.87l-0.56,1.83h-1.82l2.84-8.87H67.33z M64.96,71.36h1.88
			l-0.93-3.11L64.96,71.36z"/>
		<path class="st0" d="M71.07,65.95h4.13c0.74,0,1.3,0.09,1.67,0.27c0.37,0.18,0.68,0.44,0.92,0.78c0.24,0.34,0.36,0.75,0.36,1.23
			c0,0.98-0.53,1.64-1.6,1.97c0.62,0.14,1.08,0.41,1.38,0.83c0.31,0.41,0.46,0.86,0.46,1.35c0,0.66-0.25,1.24-0.75,1.72
			c-0.5,0.48-1.32,0.73-2.45,0.73h-4.13V65.95z M73.14,67.52v1.94h1.57c0.58,0,0.94-0.11,1.09-0.34c0.15-0.23,0.22-0.45,0.22-0.65
			c0-0.23-0.06-0.42-0.19-0.58c-0.12-0.16-0.26-0.26-0.41-0.31c-0.15-0.04-0.44-0.06-0.87-0.06H73.14z M73.14,71.04v2.14h1.6
			c0.54,0,0.93-0.1,1.15-0.29c0.22-0.19,0.34-0.46,0.34-0.8c0-0.29-0.11-0.53-0.32-0.74s-0.58-0.31-1.08-0.31H73.14z"/>
		<path class="st0" d="M81.83,71.31v3.52h-2.09v-8.87h3.9c0.72,0,1.3,0.08,1.73,0.25c0.44,0.17,0.8,0.47,1.08,0.92
			c0.29,0.45,0.43,0.94,0.43,1.49c0,1.07-0.51,1.83-1.54,2.29l1.64,3.92h-2.3l-1.36-3.52H81.83z M81.83,67.53v2.26h1.27
			c0.42,0,0.72-0.03,0.91-0.09c0.19-0.06,0.36-0.19,0.5-0.39c0.15-0.2,0.22-0.43,0.22-0.69c0-0.25-0.07-0.47-0.22-0.66
			c-0.15-0.2-0.31-0.32-0.48-0.36c-0.17-0.05-0.5-0.07-0.98-0.07H81.83z"/>
		<path class="st0" d="M90.56,65.95v8.87h-2.07v-8.87H90.56z"/>
		<path class="st0" d="M96.7,65.95l2.78,8.87h-2.23L96.7,73h-2.87l-0.56,1.83h-1.82l2.84-8.87H96.7z M94.33,71.36h1.88l-0.93-3.11
			L94.33,71.36z"/>
	</g>
</g>
</svg>
