<?xml version="1.0" encoding="utf-8"?>
<!-- Generator: Adobe Illustrator 24.3.0, SVG Export Plug-In . SVG Version: 6.00 Build 0)  -->
<svg version="1.1" id="Capa_1" xmlns="http://www.w3.org/2000/svg" xmlns:xlink="http://www.w3.org/1999/xlink" x="0px" y="0px"
	 viewBox="0 0 100 100" style="enable-background:new 0 0 100 100;" xml:space="preserve">
<style type="text/css">
	.st0{fill:#EEEA7E;}
</style>
<g>
	<g>
		<path class="st0" d="M92.3,10.6c-0.6-0.3-1-0.7-1.5-0.8c-1.1-0.2-2.3-0.4-3.5-0.5c-0.4,0-0.7-0.1-0.9-0.5c-0.3-0.6-0.7-1.1-1-1.7
			c-2.8-3.4-6.4-4.9-10.7-5c-3.9,0-7.2,1.4-9.3,4.9c-0.5,0.8-0.9,1.7-1.3,2.6c-1.2,2.9-3,5.3-5.3,7.3c-3.3,2.8-6.6,5.5-9.9,8.3
			c-5.9,5-11.4,10.4-17,15.8c-1.3,1.3-2.6,2.7-4.1,3.8c-1.6,1.4-3.6,2.1-5.6,2.8c-6.6,2.1-12.7,5.1-18.6,8.7c-0.5,0.3-0.9,0.6-1.3,1
			c-0.6,0.6-0.8,1.4-0.5,2.3c0.3,0.7,1.1,1,2.1,0.9c0.1,0,0.2,0,0.3-0.1c1.2-0.3,2.2-0.9,3.3-1.6c1.2-0.8,2.4-1.7,3.7-2.3
			c5-2.4,10.2-4.3,15.5-5.8c0.2-0.1,0.5,0,0.7,0c1.2,0.2,2.4,0.5,3.6,0.6c3.2,0.3,6.5,0.3,9.7,0c0.7,0,1.3,0.1,1.7,0.7
			c1.1,1.4,2.5,2.2,4.1,2.8c2.8,1.1,5.7,1.5,8.7,1.8c0.4,0,0.8,0.2,1,0.5c1.5,1.4,2.9,2.9,4.4,4.3c0.1,0.1,0.4,0.2,0.6,0.3
			c0,0.1-0.1,0.1-0.2,0.2c-0.1,0-0.2,0.1-0.3,0.1c-1.1,0.2-2.2,0.5-3.3,0.7c-0.5,0.1-0.7,0.3-0.6,0.8c0.1,0.5,0.5,0.5,0.9,0.4
			c0.9-0.2,2-0.5,2.9-0.6c0.9-0.2,1.8-0.5,2.7-0.4c2.6,0.3,5.2,0.7,7.8,1.1c0.5,0.1,0.9,0.1,0.9-0.5c0-0.6-0.4-0.6-0.8-0.7
			c-1.8-0.3-3.6-0.5-5.4-0.7c-0.5-0.1-0.9-0.2-1.4-0.6c-1.5-1.5-3-2.8-4.5-4.3c-0.1-0.1-0.2-0.2-0.4-0.4c0.8-0.1,1.5-0.2,2.3-0.4
			c5.2-1.4,9.6-4.1,13.1-8.1c3.5-4,5.8-8.7,8.2-13.3c1.3-2.6,1.5-5.5,1.6-8.4c0.1-2.1,0-4.1,1-6.1c0.1-0.2,0.2-0.5,0.2-0.7
			c0.4-2.1,0.7-4.1,1-6.2c0-0.3,0.2-0.5,0.5-0.6c0.5-0.1,1-0.2,1.5-0.4C90.2,12.2,91.3,11.8,92.3,10.6z"/>
		<path class="st0" d="M92.3,10.6c-0.9,1.1-2.1,1.6-3.2,2c-0.5,0.2-0.9,0.3-1.5,0.4c-0.4,0-0.5,0.2-0.5,0.6c-0.4,2.1-0.7,4.1-1,6.2
			c0,0.3-0.1,0.5-0.2,0.7c-0.9,1.9-0.9,4-1,6.1c-0.1,2.9-0.3,5.8-1.6,8.4c-2.4,4.6-4.7,9.3-8.2,13.3c-3.5,4-7.9,6.7-13.1,8.1
			c-0.7,0.2-1.5,0.3-2.3,0.4c0.1,0.1,0.3,0.3,0.4,0.4c1.5,1.4,3,2.8,4.5,4.3c0.4,0.4,0.8,0.6,1.4,0.6c1.8,0.3,3.6,0.5,5.4,0.7
			c0.4,0.1,0.8,0.2,0.8,0.7c-0.1,0.6-0.5,0.6-0.9,0.5c-2.6-0.4-5.2-0.8-7.8-1.1c-0.9-0.1-1.8,0.2-2.7,0.4c-1,0.2-2,0.4-2.9,0.6
			c-0.4,0.1-0.7,0.1-0.9-0.4c-0.1-0.4,0.1-0.7,0.6-0.8c1.1-0.2,2.2-0.5,3.3-0.7c0.1,0,0.2-0.1,0.3-0.1c0-0.1,0.1-0.1,0.2-0.2
			c-0.2-0.1-0.4-0.2-0.6-0.3c-1.5-1.4-2.9-2.9-4.4-4.3c-0.3-0.2-0.7-0.4-1-0.5c-2.9-0.4-5.9-0.7-8.7-1.8c-1.6-0.6-3-1.4-4.1-2.8
			c-0.5-0.6-1-0.7-1.7-0.7c-3.2,0.3-6.5,0.3-9.7,0c-1.2-0.1-2.4-0.4-3.6-0.6c-0.2,0-0.5-0.1-0.7,0c-5.3,1.5-10.5,3.4-15.5,5.8
			c-1.3,0.6-2.4,1.5-3.7,2.3c-1,0.7-2,1.4-3.3,1.6c-0.1,0-0.2,0-0.3,0.1c-1,0.1-1.8-0.2-2.1-0.9c-0.4-0.8-0.1-1.6,0.5-2.3
			c0.4-0.4,0.8-0.7,1.3-1c5.9-3.6,12-6.6,18.5-8.7c2-0.6,4-1.4,5.6-2.8c1.4-1.2,2.7-2.6,4.1-3.8c5.5-5.4,11.1-10.8,17-15.8
			c3.3-2.8,6.6-5.5,9.9-8.3c2.3-2,4.1-4.4,5.3-7.3c0.4-0.9,0.8-1.8,1.3-2.6c2.2-3.3,5.5-4.8,9.4-4.8c4.3,0,7.9,1.6,10.7,5
			c0.4,0.5,0.8,1.1,1,1.7c0.2,0.4,0.5,0.5,0.9,0.5c1.2,0.1,2.3,0.2,3.5,0.5C91.2,10,91.7,10.3,92.3,10.6z"/>
	</g>
	<g>
		<path class="st0" d="M14.6,94.8V78.7h5.2c2,0,3.3,0.1,3.9,0.2c0.9,0.2,1.7,0.8,2.3,1.6s0.9,1.9,0.9,3.1c0,1-0.2,1.8-0.6,2.5
			c-0.4,0.7-0.8,1.2-1.4,1.6c-0.6,0.4-1.1,0.6-1.7,0.8c-0.8,0.2-1.9,0.2-3.4,0.2h-2.1v6.1L14.6,94.8L14.6,94.8z M17.9,81.4V86h1.8
			c1.3,0,2.2-0.1,2.6-0.3c0.4-0.2,0.8-0.5,1-0.8c0.3-0.4,0.4-0.8,0.4-1.2c0-0.6-0.2-1.1-0.5-1.5c-0.4-0.4-0.8-0.6-1.3-0.7
			c-0.4-0.1-1.2-0.1-2.3-0.1L17.9,81.4L17.9,81.4z"/>
		<path class="st0" d="M29.4,81.7l1.5-3.3h3.5l-3,3.3H29.4z M29.6,94.8V83.1h3.1v11.7H29.6z"/>
		<path class="st0" d="M35.2,88.8c0-1,0.3-2,0.7-3c0.5-0.9,1.2-1.7,2.2-2.2c0.9-0.5,2-0.8,3.1-0.8c1.8,0,3.2,0.6,4.4,1.7
			c1.1,1.1,1.7,2.6,1.7,4.4c0,1.8-0.6,3.2-1.7,4.4s-2.6,1.8-4.3,1.8c-1.1,0-2.1-0.2-3.1-0.7c-1-0.5-1.7-1.2-2.2-2.1
			C35.4,91.3,35.2,90.2,35.2,88.8z M38.4,89c0,1.2,0.3,2.1,0.8,2.7c0.6,0.6,1.2,0.9,2,0.9s1.5-0.3,2-0.9c0.6-0.6,0.8-1.5,0.8-2.7
			c0-1.1-0.3-2-0.8-2.6c-0.6-0.6-1.2-0.9-2-0.9s-1.5,0.3-2,0.9C38.6,86.9,38.4,87.8,38.4,89z"/>
		<path class="st0" d="M49.6,91.7h3.1v2.2c0,0.9-0.1,1.6-0.2,2.1s-0.5,1-0.9,1.4c-0.4,0.4-1,0.7-1.6,0.9l-0.6-1.3
			c0.6-0.2,1.1-0.5,1.3-0.8s0.4-0.8,0.4-1.5h-1.5L49.6,91.7L49.6,91.7z"/>
		<path class="st0" d="M62.1,83.1H65v1.7c0.4-0.6,0.9-1.1,1.5-1.4c0.6-0.4,1.4-0.6,2.1-0.6c1.4,0,2.5,0.6,3.5,1.6
			c0.9,1.1,1.4,2.5,1.4,4.4c0,2-0.5,3.5-1.4,4.6C71.1,94.5,70,95,68.6,95c-0.7,0-1.2-0.1-1.8-0.4c-0.5-0.3-1.1-0.7-1.7-1.3v5.9h-3.1
			V83.1L62.1,83.1z M65.1,88.8c0,1.3,0.3,2.3,0.8,2.9c0.5,0.6,1.1,0.9,1.9,0.9c0.7,0,1.3-0.3,1.8-0.9c0.5-0.6,0.7-1.5,0.7-2.8
			c0-1.2-0.2-2.1-0.7-2.7c-0.5-0.6-1.1-0.9-1.8-0.9c-0.7,0-1.4,0.3-1.9,0.9C65.4,86.8,65.1,87.6,65.1,88.8z"/>
		<path class="st0" d="M75.7,81.7l1.5-3.3h3.5l-3,3.3L75.7,81.7L75.7,81.7z M76,94.8V83.1h3.1v11.7H76z"/>
		<path class="st0" d="M81.5,88.8c0-1,0.3-2,0.7-3c0.5-0.9,1.2-1.7,2.2-2.2c0.9-0.5,2-0.8,3.1-0.8c1.8,0,3.2,0.6,4.4,1.7
			c1.1,1.1,1.7,2.6,1.7,4.4c0,1.8-0.6,3.2-1.7,4.4c-1.1,1.2-2.6,1.8-4.3,1.8c-1.1,0-2.1-0.2-3.1-0.7s-1.7-1.2-2.2-2.1
			C81.8,91.3,81.5,90.2,81.5,88.8z M84.7,89c0,1.2,0.3,2.1,0.8,2.7c0.6,0.6,1.2,0.9,2,0.9c0.8,0,1.5-0.3,2-0.9
			c0.6-0.6,0.8-1.5,0.8-2.7c0-1.1-0.3-2-0.8-2.6c-0.6-0.6-1.2-0.9-2-0.9s-1.5,0.3-2,0.9C85,86.9,84.7,87.8,84.7,89z"/>
	</g>
</g>
</svg>
