<?xml version="1.0" encoding="utf-8"?>
<!-- Generator: Adobe Illustrator 24.3.0, SVG Export Plug-In . SVG Version: 6.00 Build 0)  -->
<svg version="1.1" id="Capa_1" xmlns="http://www.w3.org/2000/svg" xmlns:xlink="http://www.w3.org/1999/xlink" x="0px" y="0px"
	 viewBox="0 0 85.44 84.96" style="enable-background:new 0 0 85.44 84.96;" xml:space="preserve">
<style type="text/css">
	.st0{fill:#010202;}
	.st1{fill:#EEEA7E;}
</style>
<g>
	<path class="st0" d="M129.24-86v0.82h-1.02v3.31h-0.98v-3.31h-1.03V-86H129.24z"/>
	<path class="st0" d="M132.91-86v2.57c0,0.42-0.05,0.72-0.14,0.93c-0.09,0.2-0.27,0.37-0.52,0.5c-0.26,0.13-0.58,0.2-0.98,0.2
		s-0.71-0.06-0.95-0.18c-0.23-0.12-0.41-0.28-0.53-0.5c-0.12-0.22-0.18-0.53-0.18-0.95V-86h1.05v2.57c0,0.22,0.02,0.39,0.06,0.49
		c0.04,0.1,0.11,0.19,0.22,0.25c0.11,0.06,0.25,0.09,0.41,0.09c0.18,0,0.33-0.03,0.44-0.09c0.11-0.06,0.19-0.14,0.23-0.24
		c0.04-0.1,0.06-0.27,0.06-0.5V-86H132.91z"/>
	<path class="st0" d="M134.65-83.5v1.64h-0.97V-86h1.81c0.33,0,0.6,0.04,0.81,0.12c0.2,0.08,0.37,0.22,0.5,0.43s0.2,0.44,0.2,0.69
		c0,0.5-0.24,0.85-0.72,1.07l0.76,1.82h-1.07l-0.63-1.64H134.65z M134.65-85.26v1.05h0.59c0.19,0,0.33-0.01,0.42-0.04
		c0.09-0.03,0.17-0.09,0.23-0.18c0.07-0.09,0.1-0.2,0.1-0.32c0-0.11-0.03-0.22-0.1-0.31c-0.07-0.09-0.14-0.15-0.22-0.17
		c-0.08-0.02-0.23-0.03-0.45-0.03H134.65z"/>
	<path class="st0" d="M138.71-86v4.13h-0.96V-86H138.71z"/>
	<path class="st0" d="M142.39-85.09l-0.82,0.28c-0.11-0.33-0.34-0.49-0.7-0.49c-0.38,0-0.57,0.12-0.57,0.37
		c0,0.1,0.04,0.18,0.11,0.25c0.07,0.07,0.23,0.13,0.48,0.18c0.42,0.08,0.73,0.17,0.92,0.26c0.2,0.09,0.36,0.23,0.49,0.42
		c0.13,0.19,0.2,0.41,0.2,0.65c0,0.37-0.14,0.7-0.43,0.97c-0.29,0.27-0.71,0.41-1.28,0.41c-0.42,0-0.78-0.1-1.08-0.29
		c-0.3-0.19-0.49-0.48-0.59-0.86l0.89-0.2c0.1,0.38,0.38,0.58,0.84,0.58c0.22,0,0.39-0.04,0.49-0.13c0.11-0.09,0.16-0.19,0.16-0.31
		c0-0.12-0.05-0.21-0.15-0.28c-0.1-0.07-0.29-0.13-0.57-0.19c-0.53-0.11-0.9-0.26-1.12-0.45c-0.22-0.19-0.34-0.46-0.34-0.83
		c0-0.37,0.13-0.68,0.4-0.93c0.27-0.25,0.63-0.38,1.09-0.38C141.64-86.06,142.16-85.74,142.39-85.09z"/>
	<path class="st0" d="M144.96-81.87l-1.02-3.36v3.36h-0.81V-86h1.51l0.72,2.47l0.76-2.47h1.51v4.13h-0.97v-3.36l-1.04,3.36H144.96z"
		/>
	<path class="st0" d="M150.01-81.8c-0.56,0-0.99-0.21-1.29-0.63c-0.3-0.42-0.46-0.92-0.46-1.51c0-0.6,0.15-1.11,0.46-1.51
		c0.31-0.4,0.75-0.6,1.32-0.6c0.58,0,1.01,0.22,1.3,0.65c0.29,0.43,0.44,0.92,0.44,1.48c0,0.6-0.15,1.1-0.45,1.51
		C151.03-82.01,150.59-81.8,150.01-81.8z M150.03-85.27c-0.51,0-0.76,0.45-0.76,1.34c0,0.89,0.25,1.34,0.76,1.34
		c0.49,0,0.74-0.45,0.74-1.34C150.77-84.82,150.52-85.27,150.03-85.27z"/>
	<path class="st0" d="M128.18-74.37c-0.56,0-0.99-0.21-1.29-0.63c-0.3-0.42-0.46-0.92-0.46-1.51c0-0.6,0.15-1.11,0.46-1.51
		c0.31-0.4,0.75-0.6,1.32-0.6c0.58,0,1.01,0.22,1.3,0.65c0.29,0.43,0.44,0.92,0.44,1.48c0,0.6-0.15,1.1-0.45,1.51
		C129.2-74.58,128.76-74.37,128.18-74.37z M128.2-77.84c-0.51,0-0.76,0.45-0.76,1.34c0,0.89,0.25,1.34,0.76,1.34
		c0.49,0,0.74-0.45,0.74-1.34C128.94-77.39,128.69-77.84,128.2-77.84z"/>
	<path class="st0" d="M131.56-76.07v1.64h-0.97v-4.13h1.81c0.33,0,0.6,0.04,0.81,0.12c0.2,0.08,0.37,0.22,0.5,0.43
		s0.2,0.44,0.2,0.69c0,0.5-0.24,0.85-0.72,1.07l0.76,1.82h-1.07l-0.63-1.64H131.56z M131.56-77.83v1.05h0.59
		c0.19,0,0.33-0.01,0.42-0.04c0.09-0.03,0.17-0.09,0.23-0.18c0.07-0.09,0.1-0.2,0.1-0.32c0-0.11-0.03-0.22-0.1-0.31
		c-0.07-0.09-0.14-0.15-0.22-0.17c-0.08-0.02-0.23-0.03-0.45-0.03H131.56z"/>
	<path class="st0" d="M137.83-78.57v4.13H137l-1.61-2.79c0,0.07,0,0.12,0.01,0.14c0.01,0.07,0.01,0.13,0.01,0.18v2.47h-0.75v-4.13
		h1.04l1.4,2.43c-0.01-0.12-0.02-0.21-0.02-0.28v-2.16H137.83z"/>
	<path class="st0" d="M139.62-78.57v4.13h-0.96v-4.13H139.62z"/>
	<path class="st0" d="M143.06-78.57v0.82h-1.02v3.31h-0.98v-3.31h-1.03v-0.82H143.06z"/>
	<path class="st0" d="M145.03-74.37c-0.56,0-0.99-0.21-1.29-0.63c-0.3-0.42-0.46-0.92-0.46-1.51c0-0.6,0.15-1.11,0.46-1.51
		c0.31-0.4,0.75-0.6,1.32-0.6c0.58,0,1.01,0.22,1.3,0.65c0.29,0.43,0.44,0.92,0.44,1.48c0,0.6-0.15,1.1-0.45,1.51
		C146.05-74.58,145.61-74.37,145.03-74.37z M145.05-77.84c-0.51,0-0.76,0.45-0.76,1.34c0,0.89,0.25,1.34,0.76,1.34
		c0.49,0,0.74-0.45,0.74-1.34C145.79-77.39,145.55-77.84,145.05-77.84z"/>
	<path class="st0" d="M148.42-75.25h1.64v0.82h-2.62v-4.13h0.98V-75.25z"/>
	<path class="st0" d="M152.1-74.37c-0.56,0-0.99-0.21-1.29-0.63c-0.3-0.42-0.46-0.92-0.46-1.51c0-0.6,0.15-1.11,0.46-1.51
		s0.75-0.6,1.32-0.6c0.58,0,1.01,0.22,1.3,0.65c0.29,0.43,0.44,0.92,0.44,1.48c0,0.6-0.15,1.1-0.45,1.51
		C153.12-74.58,152.68-74.37,152.1-74.37z M152.13-77.84c-0.51,0-0.76,0.45-0.76,1.34c0,0.89,0.25,1.34,0.76,1.34
		c0.49,0,0.74-0.45,0.74-1.34C152.87-77.39,152.62-77.84,152.13-77.84z M152.89-79.99l0.23,0.51l-1.33,0.57l-0.15-0.34L152.89-79.99
		z"/>
	<path class="st0" d="M157.72-76.65v2.21h-0.44c-0.03-0.16-0.08-0.31-0.14-0.47c-0.29,0.36-0.67,0.54-1.13,0.54
		c-0.54,0-0.96-0.19-1.26-0.58c-0.3-0.38-0.45-0.88-0.45-1.49c0-0.66,0.16-1.19,0.48-1.58c0.32-0.4,0.75-0.6,1.3-0.6
		c0.46,0,0.83,0.13,1.11,0.39c0.28,0.26,0.45,0.6,0.52,1.03l-0.92,0.12c-0.07-0.5-0.31-0.75-0.71-0.75c-0.26,0-0.46,0.12-0.59,0.36
		c-0.13,0.24-0.2,0.57-0.2,1.01c0,0.42,0.07,0.75,0.22,0.97c0.15,0.22,0.35,0.34,0.62,0.34c0.17,0,0.33-0.06,0.46-0.17
		c0.14-0.11,0.2-0.29,0.2-0.54h-0.78v-0.77H157.72z"/>
	<path class="st0" d="M159.45-78.57v4.13h-0.96v-4.13H159.45z"/>
	<path class="st0" d="M163.61-77.03l-1.01,0.06c-0.01-0.58-0.24-0.87-0.68-0.87c-0.5,0-0.76,0.45-0.76,1.35
		c0,0.52,0.07,0.87,0.21,1.05c0.14,0.18,0.33,0.28,0.58,0.28c0.4,0,0.64-0.26,0.73-0.78l0.94,0.06c-0.06,0.49-0.24,0.87-0.55,1.13
		c-0.31,0.26-0.68,0.39-1.13,0.39c-0.55,0-0.99-0.19-1.33-0.57c-0.34-0.38-0.51-0.9-0.51-1.56c0-0.62,0.17-1.13,0.5-1.53
		c0.33-0.4,0.78-0.6,1.35-0.6C162.92-78.63,163.48-78.1,163.61-77.03z"/>
	<path class="st0" d="M165.71-74.37c-0.56,0-0.99-0.21-1.29-0.63c-0.3-0.42-0.46-0.92-0.46-1.51c0-0.6,0.15-1.11,0.46-1.51
		s0.75-0.6,1.32-0.6c0.58,0,1.01,0.22,1.3,0.65c0.29,0.43,0.44,0.92,0.44,1.48c0,0.6-0.15,1.1-0.45,1.51
		C166.73-74.58,166.29-74.37,165.71-74.37z M165.74-77.84c-0.51,0-0.76,0.45-0.76,1.34c0,0.89,0.25,1.34,0.76,1.34
		c0.49,0,0.74-0.45,0.74-1.34C166.48-77.39,166.23-77.84,165.74-77.84z"/>
	<path class="st0" d="M126.63-71.14h1.26c0.51,0,0.9,0.07,1.15,0.21c0.25,0.14,0.48,0.37,0.68,0.67s0.3,0.7,0.3,1.17
		c0,0.59-0.17,1.08-0.52,1.48c-0.35,0.4-0.83,0.59-1.44,0.59h-1.42V-71.14z M127.58-70.38v2.59h0.4c0.35,0,0.61-0.13,0.78-0.39
		c0.17-0.26,0.26-0.57,0.26-0.93c0-0.25-0.05-0.48-0.15-0.69c-0.1-0.21-0.22-0.36-0.36-0.45c-0.14-0.09-0.32-0.13-0.52-0.13H127.58z
		"/>
	<path class="st0" d="M133.59-70.35h-1.97v0.85h1.54v0.78h-1.54v0.9h1.97v0.82h-2.95v-4.13h2.95V-70.35z"/>
	<path class="st0" d="M139.05-69.6l-1.01,0.06c-0.01-0.58-0.24-0.87-0.68-0.87c-0.5,0-0.76,0.45-0.76,1.35
		c0,0.52,0.07,0.87,0.21,1.05c0.14,0.18,0.33,0.28,0.58,0.28c0.4,0,0.64-0.26,0.73-0.78l0.94,0.06c-0.06,0.49-0.24,0.87-0.55,1.13
		c-0.31,0.26-0.68,0.39-1.13,0.39c-0.55,0-0.99-0.19-1.33-0.57c-0.34-0.38-0.51-0.9-0.51-1.56c0-0.62,0.17-1.13,0.5-1.53
		c0.33-0.4,0.78-0.6,1.35-0.6C138.36-71.2,138.92-70.67,139.05-69.6z"/>
	<path class="st0" d="M141.59-71.14l1.29,4.13h-1.04l-0.25-0.85h-1.33l-0.26,0.85h-0.85l1.32-4.13H141.59z M140.48-68.62h0.87
		l-0.43-1.45L140.48-68.62z"/>
	<path class="st0" d="M146.5-71.14v4.13h-0.82l-1.61-2.79c0,0.07,0,0.12,0.01,0.14c0.01,0.07,0.01,0.13,0.01,0.18v2.47h-0.75v-4.13
		h1.04l1.4,2.43c-0.01-0.12-0.02-0.21-0.02-0.28v-2.16H146.5z"/>
	<path class="st0" d="M149.94-71.14v0.82h-1.02v3.31h-0.98v-3.31h-1.03v-0.82H149.94z"/>
	<path class="st0" d="M152.09-71.14l1.29,4.13h-1.04l-0.25-0.85h-1.33l-0.26,0.85h-0.85l1.32-4.13H152.09z M150.99-68.62h0.87
		l-0.43-1.45L150.99-68.62z"/>
	<path class="st0" d="M153.83-71.14h1.92c0.34,0,0.6,0.04,0.78,0.13c0.17,0.08,0.32,0.21,0.43,0.36c0.11,0.16,0.17,0.35,0.17,0.57
		c0,0.46-0.25,0.76-0.74,0.92c0.29,0.06,0.5,0.19,0.64,0.38c0.14,0.19,0.21,0.4,0.21,0.63c0,0.31-0.12,0.58-0.35,0.8
		c-0.23,0.22-0.61,0.34-1.14,0.34h-1.92V-71.14z M154.79-70.41v0.9h0.73c0.27,0,0.44-0.05,0.51-0.16c0.07-0.11,0.1-0.21,0.1-0.3
		c0-0.1-0.03-0.19-0.09-0.27c-0.06-0.08-0.12-0.12-0.19-0.14c-0.07-0.02-0.2-0.03-0.41-0.03H154.79z M154.79-68.77v0.99h0.74
		c0.25,0,0.43-0.04,0.54-0.13c0.1-0.09,0.16-0.21,0.16-0.37c0-0.13-0.05-0.25-0.15-0.34c-0.1-0.1-0.27-0.15-0.5-0.15H154.79z"/>
	<path class="st0" d="M158.84-68.64v1.64h-0.97v-4.13h1.81c0.33,0,0.6,0.04,0.81,0.12c0.2,0.08,0.37,0.22,0.5,0.43
		s0.2,0.44,0.2,0.69c0,0.5-0.24,0.85-0.72,1.07l0.76,1.82h-1.07l-0.63-1.64H158.84z M158.84-70.4v1.05h0.59
		c0.19,0,0.33-0.01,0.42-0.04c0.09-0.03,0.17-0.09,0.23-0.18c0.07-0.09,0.1-0.2,0.1-0.32c0-0.11-0.03-0.22-0.1-0.31
		c-0.07-0.09-0.14-0.15-0.22-0.17c-0.08-0.02-0.23-0.03-0.45-0.03H158.84z"/>
	<path class="st0" d="M162.9-71.14v4.13h-0.96v-4.13H162.9z"/>
	<path class="st0" d="M165.75-71.14l1.29,4.13h-1.04l-0.25-0.85h-1.33l-0.26,0.85h-0.85l1.32-4.13H165.75z M164.65-68.62h0.87
		l-0.43-1.45L164.65-68.62z"/>
</g>
<g>
	<path class="st1" d="M-0.61-45.05c0.14-0.08,0.25-0.14,0.37-0.2c1.34-0.65,2.51-1.51,3.43-2.7c0.86-1.1,1.38-2.33,1.53-3.71
		c0.02-0.21,0.04-0.42,0.05-0.63c0.03-0.77,0.38-1.33,1.11-1.63c0.02-0.01,0.03-0.03,0.03-0.09c-0.25,0.09-0.51,0.16-0.74,0.28
		c-1.45,0.76-2.36,1.98-2.98,3.45c-0.02,0.05-0.04,0.09-0.1,0.13c0-0.48,0-0.97,0-1.45c-0.02-0.01-0.04-0.01-0.06-0.02
		c-0.03,0.05-0.06,0.09-0.09,0.14c-1.25,2.82-3.14,5.18-5.33,7.32c-0.04,0.04-0.09,0.08-0.14,0.11c-1.03,0.56-2.05,1.13-3.05,1.67
		c0.32-0.33,0.66-0.7,1.01-1.06c2.98-2.98,5.57-6.28,7.89-9.8c0.59-0.89,1.18-1.77,1.77-2.66c0.67-0.99,1.73-1.37,2.86-1.02
		c0.4,0.13,0.73,0.36,1,0.69c0.06,0.08,0.18,0.14,0.28,0.15C8.82-56,9.39-55.97,9.97-55.9c-0.12,0.03-0.25,0.06-0.37,0.1
		c-0.91,0.26-1.7,0.69-2.13,1.58c-0.31,0.62-0.33,1.28-0.18,1.94c0.48,2.11-0.08,3.93-1.48,5.53c-0.61,0.7-1.37,1.2-2.24,1.53
		c-0.28,0.1-0.33,0.36-0.12,0.6c0.42,0.48,0.84,0.96,1.25,1.45C4.84-43,4.95-42.79,5.1-42.56c2.71-1.43,4.38-3.61,4.98-6.59
		c-0.15,2.62-1.86,6.09-5.47,7.81c-3.66,1.74-7.72,0.88-10.13-1.13c0.47-0.26,0.92-0.52,1.38-0.77c0.05-0.02,0.14,0.01,0.2,0.04
		c1.46,0.97,3.06,1.47,4.8,1.54c0.86,0.03,1.7-0.08,2.54-0.29C3.08-43.09,1.5-44.9-0.61-45.05z M4.71-42.39
		c-0.64-1.06-1.42-1.9-2.46-2.5c-0.15-0.09-0.35-0.09-0.52-0.13c-0.02,0.03-0.04,0.06-0.06,0.09c0.06,0.11,0.09,0.25,0.18,0.32
		c0.81,0.67,1.48,1.45,1.99,2.37c0.03,0.05,0.14,0.11,0.19,0.09C4.24-42.21,4.46-42.3,4.71-42.39z M6.44-55.75
		c0-0.22-0.18-0.41-0.39-0.4c-0.21,0-0.38,0.18-0.39,0.38c-0.01,0.22,0.17,0.4,0.4,0.4C6.26-55.36,6.43-55.54,6.44-55.75z"/>
	<path class="st1" d="M0.62-59.86c-3.81,0.42-6.6,2.29-7.97,5.89c-1.36,3.59-0.52,6.83,2.05,9.68c-0.34,0.36-0.69,0.73-1.04,1.09
		c-2.36-2.16-3.74-6.07-2.46-9.96C-7.47-57.22-3.65-59.93,0.62-59.86z"/>
</g>
<g>
	<path class="st1" d="M60.25,22.57c-0.24-0.13-0.44-0.31-0.66-0.36c-0.49-0.1-0.99-0.16-1.49-0.2c-0.18-0.01-0.29-0.04-0.38-0.21
		c-0.13-0.25-0.28-0.49-0.45-0.71c-1.18-1.43-2.73-2.11-4.56-2.12c-1.69-0.01-3.07,0.61-3.99,2.08c-0.22,0.35-0.41,0.73-0.57,1.11
		c-0.51,1.22-1.28,2.25-2.28,3.1c-1.4,1.19-2.83,2.36-4.22,3.55c-2.51,2.15-4.89,4.44-7.26,6.75c-0.57,0.56-1.13,1.14-1.74,1.65
		c-0.69,0.59-1.54,0.91-2.39,1.18c-2.8,0.9-5.41,2.21-7.92,3.73c-0.2,0.12-0.39,0.27-0.55,0.45c-0.25,0.27-0.36,0.61-0.19,0.97
		c0.13,0.29,0.49,0.42,0.91,0.37c0.04-0.01,0.08-0.02,0.12-0.03c0.53-0.11,0.96-0.41,1.41-0.7c0.52-0.34,1.02-0.73,1.57-1
		c2.13-1.05,4.36-1.82,6.63-2.48c0.09-0.03,0.2,0,0.3,0.01c0.52,0.09,1.04,0.21,1.56,0.26c1.38,0.13,2.76,0.12,4.13,0.01
		c0.31-0.02,0.54,0.05,0.73,0.3c0.46,0.58,1.09,0.92,1.76,1.18c1.19,0.47,2.45,0.63,3.71,0.78c0.15,0.02,0.33,0.09,0.44,0.19
		c0.63,0.6,1.24,1.22,1.86,1.83c0.06,0.06,0.16,0.09,0.25,0.14c-0.02,0.03-0.05,0.06-0.07,0.09c-0.05,0.01-0.09,0.03-0.14,0.04
		c-0.47,0.1-0.93,0.2-1.4,0.3c-0.2,0.04-0.3,0.14-0.25,0.34c0.05,0.19,0.2,0.2,0.37,0.16c0.41-0.09,0.83-0.19,1.25-0.26
		c0.38-0.07,0.78-0.2,1.15-0.16c1.12,0.11,2.23,0.3,3.34,0.46c0.2,0.03,0.38,0.03,0.41-0.21c0.02-0.23-0.16-0.27-0.34-0.3
		c-0.77-0.11-1.53-0.22-2.3-0.32c-0.22-0.03-0.41-0.1-0.58-0.27c-0.64-0.62-1.29-1.21-1.94-1.82c-0.05-0.05-0.1-0.1-0.16-0.17
		c0.34-0.06,0.66-0.09,0.97-0.17c2.22-0.59,4.1-1.74,5.6-3.46c1.48-1.7,2.48-3.7,3.49-5.69c0.57-1.11,0.64-2.37,0.69-3.61
		c0.04-0.88,0.02-1.77,0.42-2.59c0.05-0.1,0.07-0.21,0.09-0.32c0.15-0.88,0.31-1.76,0.45-2.64c0.02-0.14,0.07-0.2,0.22-0.23
		c0.21-0.03,0.42-0.09,0.62-0.16C59.36,23.25,59.84,23.06,60.25,22.57z"/>
	<path class="st1" d="M60.25,22.57c-0.41,0.49-0.89,0.68-1.38,0.85c-0.2,0.07-0.41,0.12-0.62,0.16c-0.15,0.02-0.19,0.09-0.22,0.23
		c-0.15,0.88-0.3,1.76-0.45,2.64c-0.02,0.11-0.04,0.22-0.09,0.32c-0.4,0.82-0.38,1.71-0.42,2.59c-0.06,1.24-0.13,2.5-0.69,3.61
		c-1.01,1.98-2.02,3.99-3.49,5.69c-1.5,1.73-3.39,2.88-5.6,3.46c-0.31,0.08-0.63,0.11-0.97,0.17c0.06,0.06,0.11,0.12,0.16,0.17
		c0.65,0.61,1.3,1.2,1.94,1.82c0.17,0.17,0.36,0.24,0.58,0.27c0.77,0.11,1.53,0.21,2.3,0.32c0.18,0.03,0.36,0.07,0.34,0.3
		c-0.03,0.24-0.21,0.24-0.41,0.21c-1.11-0.16-2.22-0.34-3.34-0.46c-0.37-0.04-0.77,0.09-1.15,0.16c-0.42,0.08-0.83,0.17-1.25,0.26
		c-0.17,0.04-0.32,0.03-0.37-0.16c-0.05-0.19,0.05-0.3,0.25-0.34c0.47-0.09,0.93-0.2,1.4-0.3c0.05-0.01,0.09-0.03,0.14-0.04
		c0.02-0.03,0.05-0.06,0.07-0.09c-0.08-0.04-0.18-0.07-0.25-0.14c-0.62-0.61-1.23-1.23-1.86-1.83c-0.11-0.1-0.29-0.17-0.44-0.19
		c-1.26-0.15-2.52-0.31-3.71-0.78c-0.67-0.26-1.3-0.61-1.76-1.18c-0.19-0.24-0.42-0.32-0.73-0.3c-1.38,0.11-2.76,0.12-4.13-0.01
		c-0.52-0.05-1.04-0.17-1.56-0.26c-0.1-0.02-0.21-0.04-0.3-0.01c-2.27,0.66-4.5,1.44-6.63,2.48c-0.55,0.27-1.05,0.66-1.57,1
		c-0.44,0.29-0.87,0.59-1.41,0.7c-0.04,0.01-0.08,0.02-0.12,0.03c-0.42,0.05-0.77-0.08-0.91-0.37c-0.17-0.36-0.06-0.69,0.19-0.97
		c0.16-0.17,0.35-0.32,0.55-0.45c2.51-1.52,5.11-2.83,7.92-3.73c0.85-0.27,1.7-0.59,2.39-1.18c0.61-0.52,1.17-1.1,1.74-1.65
		c2.36-2.31,4.75-4.6,7.26-6.75c1.4-1.2,2.82-2.36,4.22-3.55c1-0.85,1.77-1.87,2.28-3.1c0.16-0.38,0.35-0.76,0.57-1.11
		c0.92-1.47,2.31-2.1,3.99-2.08c1.83,0.01,3.38,0.69,4.56,2.12c0.18,0.22,0.33,0.46,0.45,0.71c0.09,0.17,0.2,0.2,0.38,0.21
		c0.5,0.04,1,0.1,1.49,0.2C59.81,22.27,60.01,22.44,60.25,22.57z"/>
</g>
<g>
	<path class="st1" d="M-36.49-171.97v0.82h-1.02v3.31h-0.98v-3.31h-1.03v-0.82H-36.49z"/>
	<path class="st1" d="M-32.82-171.97v2.57c0,0.42-0.05,0.72-0.14,0.93c-0.09,0.2-0.27,0.37-0.52,0.5c-0.26,0.13-0.58,0.2-0.98,0.2
		s-0.71-0.06-0.95-0.18c-0.23-0.12-0.41-0.28-0.53-0.5c-0.12-0.22-0.18-0.53-0.18-0.95v-2.57h1.05v2.57c0,0.22,0.02,0.39,0.06,0.49
		c0.04,0.1,0.11,0.19,0.22,0.25c0.11,0.06,0.25,0.09,0.41,0.09c0.18,0,0.33-0.03,0.44-0.09c0.11-0.06,0.19-0.14,0.23-0.24
		c0.04-0.1,0.06-0.27,0.06-0.5v-2.57H-32.82z"/>
	<path class="st1" d="M-31.08-169.48v1.64h-0.97v-4.13h1.81c0.33,0,0.6,0.04,0.81,0.12c0.2,0.08,0.37,0.22,0.5,0.43
		s0.2,0.44,0.2,0.69c0,0.5-0.24,0.85-0.72,1.07l0.76,1.82h-1.07l-0.63-1.64H-31.08z M-31.08-171.24v1.05h0.59
		c0.19,0,0.33-0.01,0.42-0.04c0.09-0.03,0.17-0.09,0.23-0.18c0.07-0.09,0.1-0.2,0.1-0.32c0-0.11-0.03-0.22-0.1-0.31
		c-0.07-0.09-0.14-0.15-0.22-0.17c-0.08-0.02-0.23-0.03-0.45-0.03H-31.08z"/>
	<path class="st1" d="M-27.02-171.97v4.13h-0.96v-4.13H-27.02z"/>
	<path class="st1" d="M-23.34-171.06l-0.82,0.28c-0.11-0.33-0.34-0.49-0.7-0.49c-0.38,0-0.57,0.12-0.57,0.37
		c0,0.1,0.04,0.18,0.11,0.25c0.07,0.07,0.23,0.13,0.48,0.18c0.42,0.08,0.73,0.17,0.92,0.26c0.2,0.09,0.36,0.23,0.49,0.42
		c0.13,0.19,0.2,0.41,0.2,0.65c0,0.37-0.14,0.7-0.43,0.97c-0.29,0.27-0.71,0.41-1.28,0.41c-0.42,0-0.78-0.1-1.08-0.29
		c-0.3-0.19-0.49-0.48-0.59-0.86l0.89-0.2c0.1,0.38,0.38,0.58,0.84,0.58c0.22,0,0.39-0.04,0.49-0.13c0.11-0.09,0.16-0.19,0.16-0.31
		c0-0.12-0.05-0.21-0.15-0.28c-0.1-0.07-0.29-0.13-0.57-0.19c-0.53-0.11-0.9-0.26-1.12-0.45c-0.22-0.19-0.34-0.46-0.34-0.83
		c0-0.37,0.13-0.68,0.4-0.93c0.27-0.25,0.63-0.38,1.09-0.38C-24.09-172.03-23.57-171.71-23.34-171.06z"/>
	<path class="st1" d="M-20.77-167.84l-1.02-3.36v3.36h-0.81v-4.13h1.51l0.72,2.47l0.76-2.47h1.51v4.13h-0.97v-3.36l-1.04,3.36
		H-20.77z"/>
	<path class="st1" d="M-15.72-167.78c-0.56,0-0.99-0.21-1.29-0.63c-0.3-0.42-0.46-0.92-0.46-1.51c0-0.6,0.15-1.11,0.46-1.51
		c0.31-0.4,0.75-0.6,1.32-0.6c0.58,0,1.01,0.22,1.3,0.65c0.29,0.43,0.44,0.92,0.44,1.48c0,0.6-0.15,1.1-0.45,1.51
		C-14.7-167.99-15.14-167.78-15.72-167.78z M-15.69-171.25c-0.51,0-0.76,0.45-0.76,1.34c0,0.89,0.25,1.34,0.76,1.34
		c0.49,0,0.74-0.45,0.74-1.34C-14.96-170.8-15.2-171.25-15.69-171.25z"/>
	<path class="st1" d="M-37.55-160.35c-0.56,0-0.99-0.21-1.29-0.63c-0.3-0.42-0.46-0.92-0.46-1.51c0-0.6,0.15-1.11,0.46-1.51
		c0.31-0.4,0.75-0.6,1.32-0.6c0.58,0,1.01,0.22,1.3,0.65c0.29,0.43,0.44,0.92,0.44,1.48c0,0.6-0.15,1.1-0.45,1.51
		C-36.53-160.56-36.97-160.35-37.55-160.35z M-37.52-163.82c-0.51,0-0.76,0.45-0.76,1.34c0,0.89,0.25,1.34,0.76,1.34
		c0.49,0,0.74-0.45,0.74-1.34C-36.79-163.37-37.03-163.82-37.52-163.82z"/>
	<path class="st1" d="M-34.17-162.05v1.64h-0.97v-4.13h1.81c0.33,0,0.6,0.04,0.81,0.12c0.2,0.08,0.37,0.22,0.5,0.43
		c0.13,0.21,0.2,0.44,0.2,0.69c0,0.5-0.24,0.85-0.72,1.07l0.76,1.82h-1.07l-0.63-1.64H-34.17z M-34.17-163.81v1.05h0.59
		c0.19,0,0.33-0.01,0.42-0.04c0.09-0.03,0.17-0.09,0.23-0.18c0.07-0.09,0.1-0.2,0.1-0.32c0-0.11-0.03-0.22-0.1-0.31
		c-0.07-0.09-0.14-0.15-0.22-0.17c-0.08-0.02-0.23-0.03-0.45-0.03H-34.17z"/>
	<path class="st1" d="M-27.9-164.54v4.13h-0.82l-1.61-2.79c0,0.07,0,0.12,0.01,0.14c0.01,0.07,0.01,0.13,0.01,0.18v2.47h-0.75v-4.13
		h1.04l1.4,2.43c-0.01-0.12-0.02-0.21-0.02-0.28v-2.16H-27.9z"/>
	<path class="st1" d="M-26.11-164.54v4.13h-0.96v-4.13H-26.11z"/>
	<path class="st1" d="M-22.66-164.54v0.82h-1.02v3.31h-0.98v-3.31h-1.03v-0.82H-22.66z"/>
	<path class="st1" d="M-20.7-160.35c-0.56,0-0.99-0.21-1.29-0.63c-0.3-0.42-0.46-0.92-0.46-1.51c0-0.6,0.15-1.11,0.46-1.51
		c0.31-0.4,0.75-0.6,1.32-0.6c0.58,0,1.01,0.22,1.3,0.65c0.29,0.43,0.44,0.92,0.44,1.48c0,0.6-0.15,1.1-0.45,1.51
		C-19.68-160.56-20.12-160.35-20.7-160.35z M-20.67-163.82c-0.51,0-0.76,0.45-0.76,1.34c0,0.89,0.25,1.34,0.76,1.34
		c0.49,0,0.74-0.45,0.74-1.34C-19.94-163.37-20.18-163.82-20.67-163.82z"/>
	<path class="st1" d="M-17.31-161.23h1.64v0.82h-2.62v-4.13h0.98V-161.23z"/>
	<path class="st1" d="M-13.63-160.35c-0.56,0-0.99-0.21-1.29-0.63c-0.3-0.42-0.46-0.92-0.46-1.51c0-0.6,0.15-1.11,0.46-1.51
		s0.75-0.6,1.32-0.6c0.58,0,1.01,0.22,1.3,0.65c0.29,0.43,0.44,0.92,0.44,1.48c0,0.6-0.15,1.1-0.45,1.51
		C-12.6-160.56-13.05-160.35-13.63-160.35z M-13.6-163.82c-0.51,0-0.76,0.45-0.76,1.34c0,0.89,0.25,1.34,0.76,1.34
		c0.49,0,0.74-0.45,0.74-1.34C-12.86-163.37-13.11-163.82-13.6-163.82z M-12.84-165.97l0.23,0.51l-1.33,0.57l-0.15-0.34
		L-12.84-165.97z"/>
	<path class="st1" d="M-8-162.62v2.21h-0.44c-0.03-0.16-0.08-0.31-0.14-0.47c-0.29,0.36-0.67,0.54-1.13,0.54
		c-0.54,0-0.96-0.19-1.26-0.58c-0.3-0.38-0.45-0.88-0.45-1.49c0-0.66,0.16-1.19,0.48-1.58c0.32-0.4,0.75-0.6,1.3-0.6
		c0.46,0,0.83,0.13,1.11,0.39c0.28,0.26,0.45,0.6,0.52,1.03l-0.92,0.12c-0.07-0.5-0.31-0.75-0.71-0.75c-0.26,0-0.46,0.12-0.59,0.36
		c-0.13,0.24-0.2,0.57-0.2,1.01c0,0.42,0.07,0.75,0.22,0.97c0.15,0.22,0.35,0.34,0.62,0.34c0.17,0,0.33-0.06,0.46-0.17
		c0.14-0.11,0.2-0.29,0.2-0.54H-9.7v-0.77H-8z"/>
	<path class="st1" d="M-6.28-164.54v4.13h-0.96v-4.13H-6.28z"/>
	<path class="st1" d="M-2.12-163.01l-1.01,0.06c-0.01-0.58-0.24-0.87-0.68-0.87c-0.5,0-0.76,0.45-0.76,1.35
		c0,0.52,0.07,0.87,0.21,1.05c0.14,0.18,0.33,0.28,0.58,0.28c0.4,0,0.64-0.26,0.73-0.78l0.94,0.06c-0.06,0.49-0.24,0.87-0.55,1.13
		c-0.31,0.26-0.68,0.39-1.13,0.39c-0.55,0-0.99-0.19-1.33-0.57c-0.34-0.38-0.51-0.9-0.51-1.56c0-0.62,0.17-1.13,0.5-1.53
		c0.33-0.4,0.78-0.6,1.35-0.6C-2.8-164.61-2.25-164.07-2.12-163.01z"/>
	<path class="st1" d="M-0.02-160.35c-0.56,0-0.99-0.21-1.29-0.63c-0.3-0.42-0.46-0.92-0.46-1.51c0-0.6,0.15-1.11,0.46-1.51
		s0.75-0.6,1.32-0.6c0.58,0,1.01,0.22,1.3,0.65c0.29,0.43,0.44,0.92,0.44,1.48c0,0.6-0.15,1.1-0.45,1.51
		C1.01-160.56,0.56-160.35-0.02-160.35z M0.01-163.82c-0.51,0-0.76,0.45-0.76,1.34c0,0.89,0.25,1.34,0.76,1.34
		c0.49,0,0.74-0.45,0.74-1.34C0.75-163.37,0.5-163.82,0.01-163.82z"/>
	<path class="st1" d="M-39.1-157.11h1.26c0.51,0,0.9,0.07,1.15,0.21c0.25,0.14,0.48,0.37,0.68,0.67s0.3,0.7,0.3,1.17
		c0,0.59-0.17,1.08-0.52,1.48c-0.35,0.4-0.83,0.59-1.44,0.59h-1.42V-157.11z M-38.15-156.35v2.59h0.4c0.35,0,0.61-0.13,0.78-0.39
		c0.17-0.26,0.26-0.57,0.26-0.93c0-0.25-0.05-0.48-0.15-0.69c-0.1-0.21-0.22-0.36-0.36-0.45c-0.14-0.09-0.32-0.13-0.52-0.13H-38.15z
		"/>
	<path class="st1" d="M-32.14-156.33h-1.97v0.85h1.54v0.78h-1.54v0.9h1.97v0.82h-2.95v-4.13h2.95V-156.33z"/>
	<path class="st1" d="M-26.68-155.58l-1.01,0.06c-0.01-0.58-0.24-0.87-0.68-0.87c-0.5,0-0.76,0.45-0.76,1.35
		c0,0.52,0.07,0.87,0.21,1.05c0.14,0.18,0.33,0.28,0.58,0.28c0.4,0,0.64-0.26,0.73-0.78l0.94,0.06c-0.06,0.49-0.24,0.87-0.55,1.13
		c-0.31,0.26-0.68,0.39-1.13,0.39c-0.55,0-0.99-0.19-1.33-0.57c-0.34-0.38-0.51-0.9-0.51-1.56c0-0.62,0.17-1.13,0.5-1.53
		c0.33-0.4,0.78-0.6,1.35-0.6C-27.36-157.18-26.81-156.64-26.68-155.58z"/>
	<path class="st1" d="M-24.14-157.11l1.29,4.13h-1.04l-0.25-0.85h-1.33l-0.26,0.85h-0.85l1.32-4.13H-24.14z M-25.24-154.6h0.87
		l-0.43-1.45L-25.24-154.6z"/>
	<path class="st1" d="M-19.23-157.11v4.13h-0.82l-1.61-2.79c0,0.07,0,0.12,0.01,0.14c0.01,0.07,0.01,0.13,0.01,0.18v2.47h-0.75
		v-4.13h1.04l1.4,2.43c-0.01-0.12-0.02-0.21-0.02-0.28v-2.16H-19.23z"/>
	<path class="st1" d="M-15.79-157.11v0.82h-1.02v3.31h-0.98v-3.31h-1.03v-0.82H-15.79z"/>
	<path class="st1" d="M-13.63-157.11l1.29,4.13h-1.04l-0.25-0.85h-1.33l-0.26,0.85h-0.85l1.32-4.13H-13.63z M-14.74-154.6h0.87
		l-0.43-1.45L-14.74-154.6z"/>
	<path class="st1" d="M-11.9-157.11h1.92c0.34,0,0.6,0.04,0.78,0.13c0.17,0.08,0.32,0.21,0.43,0.36c0.11,0.16,0.17,0.35,0.17,0.57
		c0,0.46-0.25,0.76-0.74,0.92c0.29,0.06,0.5,0.19,0.64,0.38c0.14,0.19,0.21,0.4,0.21,0.63c0,0.31-0.12,0.58-0.35,0.8
		c-0.23,0.22-0.61,0.34-1.14,0.34h-1.92V-157.11z M-10.93-156.38v0.9h0.73c0.27,0,0.44-0.05,0.51-0.16c0.07-0.11,0.1-0.21,0.1-0.3
		c0-0.1-0.03-0.19-0.09-0.27c-0.06-0.08-0.12-0.12-0.19-0.14s-0.2-0.03-0.41-0.03H-10.93z M-10.93-154.74v0.99h0.74
		c0.25,0,0.43-0.04,0.54-0.13c0.1-0.09,0.16-0.21,0.16-0.37c0-0.13-0.05-0.25-0.15-0.34c-0.1-0.1-0.27-0.15-0.5-0.15H-10.93z"/>
	<path class="st1" d="M-6.89-154.62v1.64h-0.97v-4.13h1.81c0.33,0,0.6,0.04,0.81,0.12c0.2,0.08,0.37,0.22,0.5,0.43
		s0.2,0.44,0.2,0.69c0,0.5-0.24,0.85-0.72,1.07l0.76,1.82h-1.07l-0.63-1.64H-6.89z M-6.89-156.38v1.05h0.59
		c0.19,0,0.33-0.01,0.42-0.04c0.09-0.03,0.17-0.09,0.23-0.18c0.07-0.09,0.1-0.2,0.1-0.32c0-0.11-0.03-0.22-0.1-0.31
		c-0.07-0.09-0.14-0.15-0.22-0.17c-0.08-0.02-0.23-0.03-0.45-0.03H-6.89z"/>
	<path class="st1" d="M-2.83-157.11v4.13H-3.8v-4.13H-2.83z"/>
	<path class="st1" d="M0.02-157.11l1.29,4.13H0.28l-0.25-0.85h-1.33l-0.26,0.85h-0.85l1.32-4.13H0.02z M-1.08-154.6h0.87l-0.43-1.45
		L-1.08-154.6z"/>
</g>
<g>
	<path class="st1" d="M-45.17-177.9c-0.26-0.15-0.48-0.34-0.72-0.39c-0.53-0.11-1.08-0.17-1.63-0.22c-0.2-0.02-0.32-0.04-0.41-0.24
		c-0.14-0.27-0.3-0.54-0.5-0.77c-1.29-1.57-2.99-2.31-4.99-2.33c-1.85-0.01-3.36,0.67-4.37,2.28c-0.24,0.39-0.45,0.8-0.62,1.22
		c-0.56,1.34-1.4,2.46-2.5,3.39c-1.54,1.3-3.1,2.58-4.62,3.89c-2.75,2.36-5.36,4.86-7.95,7.39c-0.63,0.61-1.24,1.24-1.9,1.81
		c-0.75,0.65-1.68,0.99-2.61,1.29c-3.07,0.99-5.92,2.42-8.67,4.09c-0.22,0.13-0.43,0.3-0.6,0.49c-0.27,0.3-0.39,0.66-0.21,1.06
		c0.15,0.32,0.53,0.46,0.99,0.41c0.05-0.01,0.09-0.02,0.14-0.03c0.58-0.12,1.06-0.45,1.54-0.77c0.57-0.38,1.11-0.8,1.72-1.09
		c2.33-1.15,4.77-1.99,7.26-2.72c0.1-0.03,0.22,0,0.32,0.01c0.57,0.09,1.13,0.23,1.71,0.28c1.51,0.14,3.02,0.13,4.53,0.01
		c0.34-0.03,0.59,0.06,0.8,0.32c0.51,0.63,1.19,1.01,1.93,1.3c1.3,0.51,2.68,0.69,4.06,0.85c0.17,0.02,0.36,0.1,0.48,0.21
		c0.69,0.66,1.36,1.34,2.04,2c0.07,0.07,0.18,0.1,0.27,0.15c-0.03,0.03-0.05,0.07-0.08,0.1c-0.05,0.01-0.1,0.03-0.15,0.04
		c-0.51,0.11-1.02,0.22-1.53,0.33c-0.21,0.04-0.33,0.16-0.27,0.37c0.06,0.21,0.22,0.22,0.41,0.18c0.45-0.1,0.91-0.21,1.37-0.29
		c0.42-0.08,0.85-0.22,1.26-0.18c1.22,0.13,2.44,0.33,3.65,0.5c0.22,0.03,0.42,0.03,0.44-0.23c0.03-0.25-0.17-0.3-0.37-0.33
		c-0.84-0.12-1.68-0.24-2.52-0.35c-0.24-0.03-0.45-0.11-0.64-0.29c-0.7-0.67-1.41-1.33-2.12-1.99c-0.06-0.05-0.11-0.11-0.17-0.18
		c0.37-0.06,0.73-0.1,1.06-0.19c2.43-0.64,4.49-1.9,6.14-3.79c1.62-1.86,2.71-4.05,3.82-6.22c0.62-1.21,0.7-2.6,0.76-3.95
		c0.04-0.97,0.02-1.94,0.46-2.84c0.05-0.11,0.08-0.23,0.1-0.35c0.17-0.96,0.34-1.92,0.5-2.89c0.03-0.15,0.08-0.22,0.24-0.25
		c0.23-0.04,0.46-0.1,0.68-0.17C-46.14-177.15-45.62-177.36-45.17-177.9z"/>
	<path class="st1" d="M-45.17-177.9c-0.45,0.54-0.97,0.75-1.51,0.93c-0.22,0.07-0.45,0.13-0.68,0.17c-0.16,0.03-0.21,0.1-0.24,0.25
		c-0.16,0.96-0.33,1.93-0.5,2.89c-0.02,0.12-0.05,0.24-0.1,0.35c-0.44,0.9-0.42,1.87-0.46,2.84c-0.06,1.35-0.14,2.74-0.76,3.95
		c-1.11,2.17-2.21,4.37-3.82,6.22c-1.64,1.89-3.71,3.15-6.14,3.79c-0.34,0.09-0.69,0.12-1.06,0.19c0.07,0.07,0.12,0.13,0.17,0.18
		c0.71,0.66,1.42,1.32,2.12,1.99c0.19,0.18,0.39,0.26,0.64,0.29c0.84,0.12,1.68,0.23,2.52,0.35c0.2,0.03,0.4,0.08,0.37,0.33
		c-0.03,0.27-0.23,0.26-0.44,0.23c-1.22-0.18-2.43-0.38-3.65-0.5c-0.41-0.04-0.84,0.1-1.26,0.18c-0.46,0.09-0.91,0.19-1.37,0.29
		c-0.18,0.04-0.35,0.03-0.41-0.18c-0.06-0.21,0.06-0.33,0.27-0.37c0.51-0.1,1.02-0.22,1.53-0.33c0.05-0.01,0.1-0.03,0.15-0.04
		c0.03-0.03,0.05-0.07,0.08-0.1c-0.09-0.05-0.2-0.08-0.27-0.15c-0.68-0.67-1.35-1.34-2.04-2c-0.12-0.11-0.31-0.19-0.48-0.21
		c-1.38-0.16-2.76-0.34-4.06-0.85c-0.74-0.29-1.42-0.67-1.93-1.3c-0.21-0.26-0.46-0.35-0.8-0.32c-1.51,0.12-3.02,0.13-4.53-0.01
		c-0.57-0.05-1.14-0.19-1.71-0.28c-0.11-0.02-0.22-0.04-0.32-0.01c-2.49,0.72-4.93,1.57-7.26,2.72c-0.61,0.3-1.15,0.72-1.72,1.09
		c-0.48,0.32-0.96,0.65-1.54,0.77c-0.05,0.01-0.09,0.02-0.14,0.03c-0.46,0.06-0.85-0.09-0.99-0.41c-0.18-0.39-0.07-0.76,0.21-1.06
		c0.17-0.19,0.38-0.36,0.6-0.49c2.74-1.67,5.6-3.1,8.67-4.09c0.93-0.3,1.86-0.65,2.61-1.29c0.67-0.57,1.28-1.2,1.9-1.81
		c2.59-2.53,5.2-5.04,7.95-7.39c1.53-1.31,3.09-2.59,4.62-3.89c1.1-0.93,1.94-2.05,2.5-3.39c0.17-0.42,0.38-0.83,0.62-1.22
		c1.01-1.61,2.53-2.3,4.37-2.28c2.01,0.02,3.7,0.76,4.99,2.33c0.19,0.24,0.36,0.5,0.5,0.77c0.1,0.19,0.22,0.22,0.41,0.24
		c0.55,0.05,1.09,0.1,1.63,0.22C-45.65-178.23-45.43-178.04-45.17-177.9z"/>
</g>
<g>
	<path class="st1" d="M27.05,58.55v-6.9h2.23c0.85,0,1.4,0.03,1.66,0.1c0.4,0.1,0.73,0.33,0.99,0.67s0.4,0.79,0.4,1.34
		c0,0.42-0.08,0.78-0.23,1.07c-0.15,0.29-0.35,0.52-0.59,0.68c-0.24,0.17-0.48,0.27-0.72,0.33c-0.33,0.07-0.81,0.1-1.44,0.1h-0.91
		v2.6H27.05z M28.44,52.82v1.96h0.76c0.55,0,0.92-0.04,1.1-0.11c0.18-0.07,0.33-0.19,0.44-0.34S30.9,54,30.9,53.8
		c0-0.25-0.07-0.46-0.22-0.62s-0.33-0.26-0.56-0.31c-0.17-0.03-0.5-0.05-1-0.05H28.44z"/>
	<path class="st1" d="M33.37,52.95l0.65-1.41h1.48l-1.29,1.41H33.37z M33.47,58.55v-5h1.32v5H33.47z"/>
	<path class="st1" d="M35.84,55.98c0-0.44,0.11-0.86,0.32-1.28c0.22-0.41,0.52-0.72,0.92-0.94c0.4-0.22,0.84-0.33,1.33-0.33
		c0.76,0,1.38,0.25,1.86,0.74c0.48,0.49,0.72,1.11,0.72,1.86c0,0.76-0.24,1.38-0.73,1.88s-1.1,0.75-1.84,0.75
		c-0.46,0-0.89-0.1-1.31-0.31s-0.73-0.51-0.95-0.91C35.95,57.04,35.84,56.56,35.84,55.98z M37.2,56.05c0,0.5,0.12,0.88,0.35,1.14
		c0.24,0.26,0.53,0.39,0.87,0.39c0.34,0,0.63-0.13,0.87-0.39c0.23-0.26,0.35-0.65,0.35-1.15c0-0.49-0.12-0.87-0.35-1.13
		c-0.23-0.26-0.52-0.39-0.87-0.39c-0.35,0-0.64,0.13-0.87,0.39C37.31,55.18,37.2,55.56,37.2,56.05z"/>
	<path class="st1" d="M42,57.23h1.32v0.95c0,0.38-0.03,0.68-0.1,0.91s-0.19,0.42-0.37,0.59s-0.42,0.31-0.7,0.41l-0.26-0.55
		c0.27-0.09,0.46-0.21,0.57-0.36c0.11-0.15,0.17-0.36,0.18-0.63H42V57.23z"/>
	<path class="st1" d="M47.35,53.56h1.23v0.73c0.16-0.25,0.38-0.46,0.65-0.61c0.27-0.16,0.58-0.24,0.91-0.24
		c0.58,0,1.07,0.23,1.48,0.68c0.4,0.46,0.61,1.09,0.61,1.9c0,0.83-0.2,1.48-0.61,1.95s-0.9,0.69-1.48,0.69
		c-0.28,0-0.53-0.06-0.75-0.17c-0.22-0.11-0.46-0.3-0.71-0.56v2.52h-1.32V53.56z M48.65,55.97c0,0.56,0.11,0.98,0.33,1.24
		c0.22,0.27,0.49,0.4,0.81,0.4c0.31,0,0.56-0.12,0.77-0.37c0.2-0.25,0.31-0.65,0.31-1.21c0-0.52-0.1-0.91-0.31-1.17
		c-0.21-0.25-0.47-0.38-0.78-0.38c-0.32,0-0.59,0.12-0.8,0.37C48.76,55.11,48.65,55.48,48.65,55.97z"/>
	<path class="st1" d="M53.17,52.95l0.65-1.41h1.48l-1.29,1.41H53.17z M53.27,58.55v-5h1.32v5H53.27z"/>
	<path class="st1" d="M55.64,55.98c0-0.44,0.11-0.86,0.32-1.28c0.22-0.41,0.52-0.72,0.92-0.94c0.4-0.22,0.84-0.33,1.33-0.33
		c0.76,0,1.38,0.25,1.86,0.74c0.48,0.49,0.72,1.11,0.72,1.86c0,0.76-0.24,1.38-0.73,1.88s-1.1,0.75-1.84,0.75
		c-0.46,0-0.89-0.1-1.31-0.31s-0.73-0.51-0.95-0.91C55.75,57.04,55.64,56.56,55.64,55.98z M57,56.05c0,0.5,0.12,0.88,0.35,1.14
		c0.24,0.26,0.53,0.39,0.87,0.39c0.34,0,0.63-0.13,0.87-0.39c0.23-0.26,0.35-0.65,0.35-1.15c0-0.49-0.12-0.87-0.35-1.13
		c-0.23-0.26-0.52-0.39-0.87-0.39c-0.35,0-0.64,0.13-0.87,0.39C57.11,55.18,57,55.56,57,56.05z"/>
</g>
</svg>
